<?xml version="1.0" encoding="UTF-8" standalone="no"?>
<!-- Created with Inkscape (http://www.inkscape.org/) -->

<svg
   version="1.1"
   id="svg1"
   width="443.62006"
   height="1012.3996"
   viewBox="0 0 443.62006 1012.3996"
   sodipodi:docname="36c.svg"
   inkscape:version="1.3.2 (091e20ef0f, 2023-11-25)"
   xmlns:inkscape="http://www.inkscape.org/namespaces/inkscape"
   xmlns:sodipodi="http://sodipodi.sourceforge.net/DTD/sodipodi-0.dtd"
   xmlns="http://www.w3.org/2000/svg"
   xmlns:svg="http://www.w3.org/2000/svg">
  <defs
     id="defs1" />
  <sodipodi:namedview
     id="namedview1"
     pagecolor="#ffffff"
     bordercolor="#000000"
     borderopacity="0.25"
     inkscape:showpageshadow="2"
     inkscape:pageopacity="0.0"
     inkscape:pagecheckerboard="0"
     inkscape:deskcolor="#d1d1d1"
     showgrid="false"
     inkscape:zoom="1.1789508"
     inkscape:cx="251.4948"
     inkscape:cy="280.33401"
     inkscape:window-width="1920"
     inkscape:window-height="1011"
     inkscape:window-x="0"
     inkscape:window-y="0"
     inkscape:window-maximized="1"
     inkscape:current-layer="layer2" />
  <g
     inkscape:groupmode="layer"
     id="layer2"
     inkscape:label="Layer 1">
    <path
       id="path1"
       style="fill:#000000"
       d="M 254.07188 14.269069 C 241.69204 14.178957 235.77971 18.068603 230.86094 29.54446 C 227.8553 36.556849 225.12098 37.983086 217.23009 36.649929 C 210.77474 35.559306 207.99962 37.435024 207.99962 42.890163 C 207.99962 48.685916 203.07483 52.787927 193.8629 54.6636 C 174.77328 58.550543 172.66759 61.685967 172.66759 86.214382 C 172.66759 102.49863 172.44202 104.06487 169.55821 107.97219 C 165.72359 113.16778 166.39126 115.12639 173.1793 118.58938 C 180.40179 122.27402 182.66549 125.93796 182.67149 133.96243 C 182.68048 146.05598 190.68502 154.19274 206.09727 157.77298 C 210.55064 158.80748 215.46046 160.32982 217.00743 161.15774 C 219.76825 162.63528 220.26135 163.6275 221.90196 170.99954 C 222.83523 175.19317 225.04238 175.5743 230.88634 172.55227 C 233.93528 170.97559 235.35688 170.82359 236.48594 171.95266 C 237.57269 173.03941 237.99962 191.39736 237.99962 237.06594 C 237.99962 305.3582 237.87614 306.66751 231.3629 306.66751 C 227.31809 306.66751 224.8068 303.10518 221.18907 292.23391 C 218.24969 283.40108 214.81305 278.66751 211.33946 278.66751 C 210.2425 278.66751 205.09415 282.56686 199.90001 287.33352 C 194.70586 292.10018 189.90369 295.99954 189.22813 295.99954 C 188.55257 295.99954 187.99962 297.75622 187.99962 299.90383 C 187.99962 302.05144 187.09421 304.71548 185.9879 305.8218 C 182.95597 308.85373 179.28422 318.22235 176.01719 331.26321 C 173.77888 340.19782 173.19593 345.84612 173.54844 355.14993 C 173.97889 366.51094 174.45216 368.27131 180.55235 381.20852 C 186.04023 392.84715 187.17718 396.60634 187.61485 404.54055 C 188.24335 415.9339 187.03172 418.44624 181.79063 416.60305 C 176.35168 414.69028 167.14854 402.43999 157.40391 384.14212 C 149.14678 368.63736 146.51293 365.66909 144.85118 369.99954 C 143.39862 373.78486 139.87342 372.05553 137.38048 366.33352 C 134.94907 360.75276 129.98368 338.90416 130.93126 337.95657 C 131.19861 337.68922 135.7284 338.06816 140.99766 338.79837 C 147.68637 339.72528 152.21409 339.68632 155.99766 338.66751 C 162.78543 336.83975 173.3026 327.11334 173.41173 322.56204 C 173.98185 298.7852 173.82514 299.76238 177.49766 297.01516 C 179.42105 295.57639 183.01767 293.98563 185.48985 293.48001 C 187.96203 292.9744 190.15513 291.67053 190.36485 290.58157 C 190.57456 289.49262 188.02859 285.41669 184.70665 281.52493 C 177.36898 272.92864 176.88961 268.84518 182.83555 265.60501 C 195.49595 258.70587 198.92226 251.47808 195.35313 239.20071 C 192.70712 230.09876 185.84647 222.25897 177.85899 219.20852 C 172.25401 217.06798 171.3926 217.06571 163.86094 219.15969 C 159.4473 220.38679 155.20746 221.00103 154.43712 220.52493 C 153.66678 220.04883 151.66592 216.56235 149.9918 212.77688 C 145.40776 202.41153 143.95935 201.63998 135.57579 205.11477 C 131.7479 206.70134 127.90213 207.99954 127.03087 207.99954 C 126.15961 207.99954 122.1062 203.81233 118.02305 198.69485 C 113.93991 193.57738 109.45417 188.77802 108.0543 188.02883 C 101.41731 184.47683 86.899565 188.21402 80.105085 195.22415 C 75.679013 199.79069 73.420901 206.34635 73.364851 214.79251 C 73.327438 220.43031 70.607596 223.29927 63.999616 224.67141 C 56.837835 226.15853 55.999616 227.43989 55.999616 236.89212 C 55.999616 245.10103 55.827605 245.55128 51.853132 247.72805 C 38.213704 255.19825 33.392 261.62957 33.355085 272.39993 C 33.330975 279.43435 35.696907 285.02853 41.519148 291.71243 C 45.460496 296.23708 45.700346 297.3123 45.357038 308.86282 L 45.15196 315.72415 L 52.243757 316.67923 C 60.784388 317.82776 61.958071 318.68858 66.095319 326.85305 C 70.304342 335.15916 75.007788 339.37664 82.366804 341.43704 C 87.507314 342.8763 89.731346 342.76883 98.099226 340.68508 C 107.0436 338.45778 108.1105 338.43154 111.06993 340.37063 C 115.47804 343.25894 122.4039 354.0151 124.08751 360.58743 C 124.85004 363.56416 127.59082 371.37796 130.1793 377.95071 C 133.33299 385.95861 134.64273 391.12384 134.1461 393.60696 C 133.45703 397.05233 134.2686 397.88604 145.70274 405.49173 C 164.10084 417.72964 173.87432 427.99954 167.12462 427.99954 C 165.91028 427.99954 158.39569 426.14276 150.4254 423.87258 C 137.87832 420.29882 134.25685 419.80749 123.42735 420.20657 C 111.98288 420.62832 110.64741 420.96038 107.72423 424.11673 C 105.3384 426.69284 102.69058 427.78038 97.265241 428.41165 C 76.289575 430.85227 46.463726 456.37256 41.101179 476.46829 C 39.466193 482.59527 39.531317 483.0613 42.327741 485.32571 C 53.371461 494.26837 107.01327 490.91276 129.99962 479.84133 C 143.77748 473.20519 153.43852 465.32529 160.94884 454.59524 C 164.77079 449.1348 169.99994 442.33729 172.56993 439.48977 L 177.24376 434.31204 L 185.62266 435.20462 C 201.12109 436.85599 219.96323 448.67578 229.74766 462.88235 C 236.02639 471.99878 238.61335 483.79649 238.64415 503.46829 C 238.67138 520.88231 237.16955 526.66751 232.62071 526.66751 L 229.49962 526.66751 L 233.28868 535.02102 C 239.70248 549.16638 240.50147 556.65609 239.56602 593.82571 C 238.62805 631.09582 235.53935 679.82427 233.23204 693.76126 C 232.19505 700.02501 231.04407 703.10668 229.53087 703.6636 C 226.1164 704.92026 225.58112 706.54803 226.85509 711.80227 C 235.02845 745.51186 241.27518 790.58756 241.72618 819.10696 C 242.07245 841.00415 240.60948 843.06964 228.94688 837.15188 C 221.40615 833.32562 191.07513 802.81504 184.06016 791.99954 C 178.835 783.94352 178.47673 782.80172 178.96251 775.79641 C 179.62278 766.27476 183.23436 761.31096 196.79454 751.28274 C 202.29437 747.21542 206.98043 743.16246 207.2086 742.27688 C 208.8233 736.00976 211.79759 728.25917 216.83555 717.1929 C 222.04523 705.74945 222.66577 703.3362 222.65977 694.52688 C 222.64563 675.23505 214.98731 634.01306 210.3629 628.33352 C 209.61653 627.41686 208.44486 626.66751 207.75743 626.66751 C 205.06224 626.66751 190.90788 641.56479 176.41759 659.65383 C 162.03727 677.60557 157.3336 685.10454 157.3336 690.07962 C 157.3336 691.27083 156.13424 693.77169 154.66759 695.63626 C 148.9647 702.88629 152.45272 729.43408 161.54844 747.99954 C 167.71693 760.59017 170.09164 773.33352 166.26915 773.33352 C 163.05382 773.33352 155.77258 763.91856 147.97618 749.68118 C 138.57327 732.51008 136.2934 729.33352 133.37462 729.33352 C 130.37068 729.33352 126.5713 723.09708 122.24962 711.07376 C 118.06623 699.43518 116.93773 689.9692 119.03477 684.1011 C 120.64952 679.58256 122.02417 678.74379 131.16954 676.71438 C 133.27997 676.24606 138.48298 672.54864 142.73009 668.49758 C 149.62625 661.91976 151.26032 661.02221 158.01915 660.10501 C 166.32379 658.97805 167.94949 657.49291 167.98009 650.99954 C 168.00404 645.91541 170.93649 642.59207 178.94493 638.5718 C 190.49076 632.77576 195.99962 624.61103 195.99962 613.29837 C 195.99962 604.53263 194.71451 602.11146 185.6793 593.85696 L 178.22423 587.04641 L 180.44493 581.49563 C 184.07265 572.42907 183.54829 570.9222 175.46641 567.22219 C 165.50667 562.66247 165.00408 561.80614 165.99962 551.08938 C 166.73298 543.19499 166.43777 541.21315 163.75548 536.01516 C 155.77841 520.55654 130.35327 516.33886 122.97032 529.24954 C 119.69393 534.979 114.89512 536.68859 109.00157 534.2261 C 106.42932 533.15134 103.91705 531.61043 103.41759 530.80227 C 101.60986 527.87731 99.139296 529.45323 96.269148 535.36087 C 92.272269 543.58765 88.595098 545.09536 79.511335 542.23196 C 60.776229 536.32624 48.605457 542.05324 43.155866 559.34133 L 40.862898 566.61673 L 45.097273 574.82962 C 50.054525 584.44153 50.363005 587.98742 46.542585 591.44485 C 41.281187 596.20636 41.104315 598.01139 45.364851 603.37258 C 50.062918 609.28433 50.151255 610.43553 46.667585 620.34719 C 41.547917 634.91357 43.870759 644.02648 54.704694 651.87454 C 58.442232 654.582 62.513063 656.12187 67.614851 656.7593 C 74.428138 657.61056 75.66742 658.32011 82.069929 665.03665 C 88.909411 672.21158 89.202896 672.36252 94.685163 671.48587 C 102.67471 670.20829 103.99962 671.8134 103.99962 682.77493 C 103.99962 687.7885 104.68315 696.47967 105.51719 702.08743 C 107.19732 713.38384 106.62736 714.60722 99.667585 714.64602 C 97.65092 714.65724 95.999616 715.20737 95.999616 715.86868 C 95.999616 716.52999 100.88373 722.37999 106.85313 728.86868 C 127.34294 751.14092 150.66759 782.07792 150.66759 786.98391 C 150.66759 789.42956 145.70449 793.84413 132.23985 803.37649 C 114.16187 816.17489 107.93784 827.49906 105.37657 852.2554 C 103.78654 867.62414 105.38832 877.1584 112.04454 891.94094 C 114.9532 898.40066 117.3336 905.14653 117.3336 906.93313 C 117.3336 908.78702 119.37378 912.43351 122.08555 915.42532 C 124.6989 918.30854 128.28745 923.47436 130.06016 926.90579 C 133.64181 933.83879 134.89306 935.00764 137.6168 933.96243 C 140.30576 932.93058 143.99962 926.14065 143.99962 922.23001 C 143.99962 920.38276 145.40403 917.17598 147.12071 915.10305 C 156.8919 903.30408 161.01294 890.62115 162.23204 868.58743 C 163.20901 850.92989 161.13459 834.6913 156.45469 823.34524 C 154.63723 818.93893 153.13219 813.3065 153.10899 810.82962 C 153.06356 805.9774 156.96881 799.59169 160.39415 798.91751 C 162.91502 798.42135 178.61975 812.32282 209.37266 842.27102 L 231.99962 864.30618 L 231.8668 889.15383 C 231.70691 919.0455 231.35698 920.81391 225.70469 920.26321 L 221.56993 919.86087 L 225.37852 931.70462 C 230.3026 947.01662 231.99962 964.21209 231.99962 998.80813 L 231.99962 1026.6675 L 247.3336 1026.6675 L 262.66759 1026.6675 L 262.82774 987.66751 C 263.03693 937.27426 262.89199 921.86103 261.86094 884.87063 L 261.01329 854.40774 L 268.17344 847.08743 C 283.26414 831.65839 323.62615 797.78579 337.26134 789.10696 C 340.52157 787.03181 344.42092 785.33538 345.92735 785.33938 C 349.95917 785.34927 361.64081 794.67172 364.33165 800.02688 C 365.83955 803.02782 366.66268 807.7461 366.66368 813.38626 C 366.66613 823.68086 369.61382 835.95873 373.72423 842.80227 C 380.38668 853.89478 396.23956 873.31206 406.51329 882.96243 C 420.15163 895.77326 438.80308 908.38045 447.27305 910.51321 C 450.80326 911.40213 456.03227 913.32177 458.89219 914.78079 C 461.75212 916.23982 464.70283 917.05631 465.44884 916.59524 C 469.06183 914.36228 462.867 880.61583 452.99571 848.74954 L 445.99962 826.16555 L 436.66759 816.21048 C 419.1531 797.52791 412.87319 793.91429 386.0543 787.08743 C 373.52235 783.89737 353.3336 775.84173 353.3336 774.03079 C 353.3336 773.58509 355.63241 770.09557 358.44298 766.27688 C 368.44657 752.68509 390.77534 712.17124 399.01134 692.66751 C 403.07249 683.05025 403.33641 681.6729 401.70079 678.66751 C 397.30928 670.59828 402.9001 655.17865 412.38634 649.1968 C 415.86729 647.00178 418.16107 646.62256 424.66759 647.16751 C 435.47977 648.07307 442.94332 645.9687 449.46446 640.17337 C 455.73864 634.59749 457.48371 628.45415 456.34923 615.9429 C 455.73145 609.12988 455.99149 607.99407 458.67149 605.80227 C 469.59571 596.86806 468.76942 598.47264 466.96446 589.73391 C 464.56715 578.12725 464.86755 575.96841 469.98399 568.02688 C 478.69719 554.50261 479.12396 548.11454 472.06016 536.9761 C 467.0893 529.13787 461.72851 526.40169 450.01134 525.72415 C 435.21006 524.86828 434.96357 524.74959 431.37462 516.6343 C 429.59899 512.6193 427.88865 509.33352 427.57384 509.33352 C 427.25902 509.33352 424.45134 510.23352 421.3336 511.33352 C 411.03025 514.96876 408.5467 514.23989 403.3004 506.0386 C 400.73368 502.02616 397.48116 498.12486 396.07188 497.37063 C 394.66259 496.6164 389.54488 495.99954 384.70079 495.99954 C 370.80819 495.99954 360.94221 502.60159 357.34923 514.30032 C 353.78184 525.9157 353.24604 526.65027 347.25157 528.15969 C 340.53447 529.85107 339.9192 530.92909 341.31212 538.54641 C 341.88514 541.68 342.04878 545.40536 341.67735 546.82571 C 341.30592 548.24607 336.91833 551.79364 331.92735 554.70852 C 326.93638 557.62341 321.6273 561.5668 320.12852 563.47219 C 312.18453 573.57133 316.59967 593.668 327.85509 598.64407 L 332.32774 600.62258 L 331.55235 608.93313 C 331.01237 614.71562 331.26646 617.56143 332.38829 618.2886 C 333.27505 618.86339 337.90092 619.63287 342.66759 619.99954 L 351.3336 620.66751 L 351.38829 627.5093 C 351.49513 640.72396 361.04017 648.18555 378.99962 649.09329 C 391.40143 649.72012 391.11111 648.73987 385.47618 670.85696 C 380.48391 690.45157 376.6081 700.53694 372.05821 705.77688 C 367.36862 711.17771 366.30304 713.2686 361.44298 726.58548 C 356.37765 740.46481 350.05364 751.77569 339.62852 765.61087 L 331.40782 776.52102 L 329.60899 770.59329 C 326.31448 759.74223 327.22111 752.71251 334.15977 735.32962 C 339.72793 721.38018 340.53425 718.13844 340.46055 709.99954 C 340.36313 699.24691 335.8091 681.20626 331.95469 676.30618 C 330.51309 674.47347 329.32332 671.10429 329.31212 668.81985 C 329.28841 663.99695 328.12955 661.99954 325.35509 661.99954 C 324.11102 661.99954 323.0842 660.18476 322.5836 657.10501 C 322.05625 653.8607 320.36162 651.0111 317.56016 648.65383 C 315.23536 646.69763 313.3336 644.32999 313.3336 643.39407 C 313.3336 640.51758 307.95041 634.66751 305.3043 634.66751 C 303.92819 634.66751 301.20144 632.56621 299.24376 629.99954 C 296.89873 626.92505 294.57954 625.33352 292.44688 625.33352 C 290.24632 625.33352 288.48114 624.05478 286.93712 621.34133 C 285.68789 619.14598 283.90123 617.34633 282.96641 617.34133 C 280.77833 617.33048 278.66759 622.91311 278.66759 628.70657 C 278.66759 631.84113 277.86188 633.67097 276.05821 634.63626 C 272.14439 636.73087 270.55951 644.08729 269.73399 663.99954 C 268.82255 685.98408 271.99536 714.51504 276.39024 723.86477 C 280.27816 732.13596 293.54573 745.54766 303.99962 751.77298 C 308.76628 754.61153 313.40821 758.37439 314.31407 760.1343 C 315.21992 761.89423 315.96929 766.99336 315.98009 771.46633 C 315.99627 778.16235 315.35254 780.55017 312.3336 784.98782 C 308.27289 790.95681 291.887 805.47379 275.47032 817.64602 C 266.02868 824.64658 264.67266 825.28454 263.81993 823.11868 C 263.28912 821.77048 262.80265 793.06683 262.73985 759.33352 C 262.67708 725.60023 262.13608 697.2301 261.53868 696.2886 C 260.89065 695.2673 259.4694 694.95325 258.01524 695.51126 C 255.69001 696.40354 255.61702 695.28728 256.39415 671.22415 C 257.36215 641.25112 260.31316 610.51632 264.76134 584.09524 C 266.54266 573.51465 267.99962 563.75094 267.99962 562.39798 C 267.99962 560.10572 267.78167 560.0827 264.79063 562.04251 C 262.1977 563.74145 261.36418 563.81064 260.45665 562.40579 C 259.83874 561.44927 259.14655 536.82012 258.91759 507.67532 L 258.50157 454.68508 L 275.5836 443.52102 C 302.44439 425.96589 308.16664 423.52625 327.54259 421.36477 L 339.75157 420.00149 L 348.81212 429.66751 C 369.86231 452.12247 378.61654 459.69787 389.79844 465.13235 C 404.73806 472.3931 412.2672 473.89312 428.56407 472.85501 C 453.87654 471.2426 474.6507 465.35671 475.78282 459.47805 C 476.08368 457.91584 472.40765 453.36455 465.05821 446.19485 C 444.13396 425.78233 424.46141 413.412 408.07579 410.36477 C 401.93527 409.2228 395.74456 409.23903 382.96251 410.43118 C 364.75109 412.1297 345.19998 412.46383 340.3336 411.15969 C 338.6836 410.71751 337.3336 409.53458 337.3336 408.53079 C 337.3336 407.52699 347.24516 396.45934 359.35899 383.93508 C 384.24088 358.21022 386.1212 355.83702 384.26329 352.51712 C 382.62025 349.58117 383.76211 345.74027 390.15391 332.70852 C 396.40506 319.96355 403.44039 311.99954 408.44884 311.99954 C 410.40871 311.99954 414.61886 314.01765 417.92149 316.5386 C 421.19153 319.03467 426.23557 321.47725 429.13048 321.96633 C 441.14259 323.99577 453.90274 315.58428 457.31798 303.38626 C 459.23624 296.53486 458.80131 293.71255 453.83751 280.84133 L 451.3336 274.34915 L 457.79063 268.65969 L 464.24962 262.97024 L 457.28087 253.38821 L 450.31212 243.80813 L 455.02696 238.90383 C 467.70258 225.71619 469.9098 216.23106 462.85509 205.26126 C 455.73427 194.18868 453.6443 193.02003 441.27696 193.20071 C 435.27757 193.28835 429.82114 193.69924 429.15196 194.11282 C 426.28442 195.88505 420.60469 193.08419 418.66759 188.9429 C 416.34765 183.98317 412.1402 182.81662 407.72423 185.90969 C 402.7904 189.36547 399.00063 188.4201 392.16368 182.02493 C 381.53152 172.0798 373.32972 169.93524 363.3336 174.48782 C 357.46998 177.15832 348.62512 186.18063 346.56798 191.59133 C 345.29475 194.94018 344.9977 195.02102 336.67344 194.24368 C 331.95298 193.80288 327.77474 193.95163 327.39024 194.57376 C 327.00574 195.1959 327.22943 198.58094 327.88634 202.09719 C 329.32429 209.79422 328.17008 213.34549 322.01915 220.15383 C 311.98129 231.26456 310.60516 241.20856 317.3336 253.99954 C 322.05105 262.96754 322.18254 264.59011 318.66173 270.36477 C 314.75946 276.76508 315.32172 278.90184 322.0211 283.1343 C 329.76106 288.02419 331.63629 290.83262 333.50548 300.33352 C 335.37551 309.83874 337.98556 313.31808 347.19884 318.58938 C 355.90184 323.56874 357.98688 323.62638 367.15001 319.13235 C 371.11458 317.18794 375.32633 315.96864 376.51134 316.42337 C 382.6666 318.78536 374.90511 340.63782 361.26915 359.33548 C 353.55192 369.91736 352.59764 370.40385 348.07188 366.0679 C 344.47997 362.62662 344.15843 362.55122 342.95079 364.86477 C 342.24209 366.22246 340.63221 370.91458 339.37462 375.29251 C 336.41741 385.58711 332.90429 392.38233 328.3336 396.64602 C 323.934 400.75012 312.0895 406.87898 310.48009 405.8843 C 308.45448 404.63241 309.25589 396.0444 311.87462 390.9468 C 313.27232 388.22603 317.14622 381.94088 320.48399 376.98001 C 323.82175 372.01913 326.96123 365.7822 327.46055 363.12063 C 329.81443 350.57338 323.87802 317.08098 318.66563 313.50344 C 317.19975 312.49734 315.99962 310.31728 315.99962 308.65774 C 315.99962 306.91053 314.59775 304.72126 312.66759 303.45657 C 310.83425 302.25532 309.3336 300.37716 309.3336 299.28274 C 309.3336 296.53427 286.51441 273.33259 283.81212 273.33352 C 282.60829 273.33394 281.27289 274.72757 280.84532 276.43118 C 280.41774 278.13479 278.46297 281.88349 276.50157 284.76321 C 271.81048 291.65063 269.76474 299.80515 267.91368 318.99758 C 264.69518 352.36805 271.44423 377.50666 286.64219 388.75149 C 292.63907 393.18852 295.99962 399.11396 295.99962 405.25344 C 295.99962 411.43217 288.41409 418.50705 272.20079 427.44876 C 261.03122 433.60884 258.1602 434.70479 257.14024 433.1968 C 256.37217 432.06126 256.09538 405.55966 256.43321 365.33352 L 256.9879 299.33352 L 261.0543 284.99954 L 265.12071 270.66751 L 261.38243 270.66751 C 258.62803 270.66751 257.43701 269.87806 256.85704 267.66751 C 256.42414 266.01751 255.6587 245.31749 255.15587 221.66751 L 254.2418 178.66751 L 260.49766 178.66751 C 263.93809 178.66751 268.70166 177.85219 271.0836 176.85696 C 280.31914 172.99809 289.2417 160.31596 289.3043 150.95852 C 289.34168 145.37435 291.25531 144.68221 301.6168 146.50735 C 306.17284 147.30988 310.37883 147.48752 310.96446 146.90188 C 311.5501 146.31625 310.8221 142.32915 309.34727 138.04251 C 304.73394 124.63361 305.5341 122.71329 317.17149 119.25735 C 343.26652 111.50796 341.33018 75.61031 314.47813 69.331569 C 304.60116 67.022062 302.66759 65.008422 302.66759 57.0386 C 302.66759 47.024088 301.23022 45.333522 292.72813 45.333522 C 288.78059 45.333522 284.6099 44.972581 283.4586 44.530788 C 282.29221 44.083199 280.17466 39.732281 278.67735 34.704616 C 274.13399 19.448846 268.02034 14.370599 254.07188 14.269069 z M 230.49571 318.66751 C 231.09626 318.66751 232.65732 319.84987 233.96641 321.29641 C 237.79727 325.52948 238.58454 340.7292 237.71055 393.66751 C 237.26561 420.61748 236.54786 442.64718 236.1168 442.62258 C 233.4262 442.4689 206.18768 424.47377 202.79259 420.60696 C 196.26787 413.17573 197.39813 409.68321 210.03477 398.25149 C 225.49319 384.26707 229.56792 372.12872 229.47032 340.33352 C 229.43375 328.41686 229.89517 318.66751 230.49571 318.66751 z "
       transform="translate(-33.355085,-14.267116)" />
    <g
       id="layer3"
       inkscape:label="01"
       style="display:inline;fill:#008000">
      <path
         id="path2"
         style="fill:#88aa00"
         d="m 246.26719,174.10696 c -3.43831,0.08 -3.94047,10.63041 -4.44921,60.56055 -0.63241,62.06633 -1.29495,75.28518 -3.9043,77.89453 -1.56658,1.56658 -1.52457,2.47584 0.28125,6.0957 2.83763,5.68817 3.82697,42.65744 2.50195,93.55274 l -0.99414,38.21093 -12.01367,-7.88672 c -6.60655,-4.33809 -16.10922,-10.12843 -21.11719,-12.86718 -9.88111,-5.40379 -11.9043,-8.22402 -11.90429,-16.58203 0,-4.9754 0.88948,-6.38676 10.10937,-16.03711 10.01757,-10.48527 13.88491,-16.79645 13.89453,-22.67188 0.003,-1.67356 1.20209,-5.00714 2.66602,-7.4082 3.1805,-5.21651 3.34723,-6.96875 0.66211,-6.96875 -2.48381,0 -2.48207,-0.0217 0.22461,-8.29688 1.95159,-5.96668 2.03363,-8.60568 0.67187,-21.58398 -1.84626,-17.59592 -7.09246,-40.21942 -10,-43.12695 -1.88045,-1.88045 -2.52629,-1.62801 -6.82031,2.66601 -2.81745,2.81745 -4.74219,6.04928 -4.74219,7.96289 0,1.9925 -1.74251,4.76577 -4.56836,7.26758 -2.93926,2.60223 -4.89496,5.78072 -5.48242,8.91211 -0.51329,2.73611 -1.69877,4.86719 -2.70703,4.86719 -2.32553,0 -7.92651,17.69075 -9.74805,30.78711 -1.60833,11.56342 -0.48967,17.31663 6.42969,33.05468 4.1212,9.37366 7.41151,24.70587 6.09961,28.42188 -0.33708,0.9548 -0.90415,3.45977 -1.25977,5.5664 -0.35563,2.10664 -0.92376,4.1054 -1.26172,4.44336 -0.33797,0.33797 -3.37332,-0.60572 -6.74609,-2.09765 -8.94397,-3.95635 -19.23521,-15.03424 -25.86523,-27.84375 -5.68421,-10.98214 -8.29733,-13.05816 -11.90039,-9.45508 -2.58698,2.58698 -5.06121,-0.752 -10.33594,-13.94922 -2.69568,-6.74451 -5.22904,-12.56106 -5.63086,-12.92773 -0.40183,-0.36666 -0.38755,2.3712 0.0312,6.08593 0.85959,7.62367 6.06589,20.30228 10.98828,26.75586 1.80927,2.37207 3.29102,5.7607 3.29102,7.5293 0,3.67733 2.05222,5.68498 11.08984,10.8457 3.53356,2.01776 10.62238,7.62782 15.75195,12.4668 9.2132,8.69126 9.28921,8.81901 6.24219,10.50977 -4.57038,2.53604 -10.27375,2.18112 -24.54688,-1.52735 -8.07821,-2.0989 -16.48302,-3.33398 -22.69335,-3.33398 -8.755,0 -10.17516,0.36025 -12.6504,3.20703 -2.0323,2.33736 -5.19391,3.62681 -11.6582,4.75391 -12.626412,2.2015 -19.348446,4.87557 -20.880858,8.30664 -0.951735,2.13092 -3.187236,3.34926 -7.988281,4.35156 -5.395505,1.12641 -6.748578,1.96666 -7.095703,4.4082 -0.274884,1.93344 -2.277288,3.95961 -5.576172,5.64258 -6.199581,3.16279 -7.404369,4.83061 -5.310547,7.35352 1.27648,1.53805 0.655721,2.77754 -3.21875,6.43164 -2.639959,2.48979 -4.798828,5.52144 -4.798828,6.73632 0,1.2149 -1.649352,2.83482 -3.666016,3.60157 -2.879729,1.0949 -3.23873,1.62269 -1.667969,2.45898 6.853204,3.64872 61.478214,2.19993 69.587894,-1.8457 2.28551,-1.14016 6.04249,-2.07227 8.34765,-2.07227 3.13289,0 5.50563,-1.34739 9.39844,-5.33398 2.86433,-2.93334 6.24577,-5.33203 7.51367,-5.33203 1.2679,0 3.60195,-1.82213 5.1875,-4.04883 1.58554,-2.22669 5.05771,-5.07735 7.7168,-6.33399 3.39516,-1.60449 6.9105,-5.39337 11.80664,-12.72656 7.07039,-10.58969 15.15751,-16.91466 18.33789,-14.3418 0.79064,0.63961 5.28654,2.14086 9.99219,3.33594 10.16335,2.58117 20.23174,8.10999 30.83203,16.93164 12.96116,10.78639 19.47709,27.60204 20.86719,53.85352 0.58737,11.09224 0.2428,17.01688 -1.41211,24.29297 -2.0208,8.88476 -2.02376,10.57194 -0.0391,21.99609 1.90411,10.96057 1.97351,17.16891 0.61718,54.37305 -1.69276,46.43247 -4.73622,91.13817 -6.87304,100.95898 -0.76298,3.5066 -1.69822,7.9108 -2.08008,9.78711 -0.38186,1.87631 0.82384,12.37501 2.67969,23.33203 5.4439,32.14103 6.71204,46.27141 6.78515,75.63282 0.0765,30.73957 0.0115,30.96326 -8.47461,29.7207 -10.82501,-1.58503 -30.85121,-19.52127 -51.16797,-45.82813 -11.32132,-14.65924 -11.61126,-15.2134 -10.80468,-20.66601 1.13622,-7.68105 5.2364,-14.40286 16.43359,-26.9375 5.24069,-5.86667 9.83758,-12.16667 10.2168,-14 0.69472,-3.35863 1.05563,-4.04964 5.89453,-11.33203 4.0211,-6.05166 7.79278,-17.00587 9.38281,-27.25391 2.31672,-14.9316 -1.86793,-45.66538 -6.82812,-50.1543 -1.42151,-1.28645 -2.58399,-3.64668 -2.58399,-5.24414 0,-1.59745 -0.38239,-3.28668 -0.84961,-3.7539 -1.59819,-1.5982 -8.47147,4.57449 -12.05469,10.82617 -1.96904,3.43541 -6.12269,9.01959 -9.23242,12.41015 -3.10974,3.39056 -7.472,9.76554 -9.69336,14.16602 -2.22135,4.40048 -4.90708,8.33358 -5.96679,8.74023 -2.48643,0.95413 -5.72776,10.94033 -7.66016,23.59571 -2.00758,13.14769 0.31664,29.60601 5.65625,40.04883 4.46713,8.73651 6.0995,16.69257 5.39258,26.28515 -0.38913,5.28041 -1.03419,7 -2.62696,7 -3.29325,0 -13.32946,-11.59931 -20.11523,-23.24804 -3.39025,-5.81985 -9.83108,-14.57763 -14.3125,-19.46094 -12.24091,-13.33869 -17.92295,-27.42544 -19.90039,-49.33399 -0.85388,-9.46038 -2.17621,-12.81174 -4.48828,-11.38281 -2.04052,1.26112 -1.83047,16.48802 0.40234,29.15625 1.00783,5.71809 1.52432,11.57861 1.14649,13.02344 -0.82671,3.16132 2.17626,7.85364 18.44922,28.83008 12.60199,16.24445 27.85963,38.17887 27.8457,40.03125 -0.004,0.57813 -6.36964,5.54999 -14.14453,11.04882 -14.17267,10.02371 -23.18164,18.48199 -23.18164,21.76563 0,0.96589 -2.09935,4.21042 -4.66602,7.20898 -5.53498,6.46639 -6.00646,8.98704 -1.4668,7.84766 3.19827,-0.80272 3.19993,-0.80026 1.45313,5.00391 -0.96139,3.19446 -2.46356,10.54167 -3.33789,16.32617 -0.87432,5.78449 -2.17725,11.6187 -2.89453,12.96484 -1.66997,3.13408 -0.41303,4.42613 2.19726,2.25977 3.9621,-3.28826 5.69503,-0.58869 7.40235,11.52539 2.03327,14.42684 3.36428,18.28745 5.96093,17.29101 1.99032,-0.76375 3.41419,2.96302 5.43946,14.24805 1.83237,10.21015 7.29389,7.03508 12.53125,-7.28711 1.81896,-4.97416 3.6444,-7.75029 5.39843,-8.20898 1.68566,-0.44081 2.65639,-1.83079 2.66797,-3.81836 0.0336,-5.75939 1.5589,-9.125 4.13672,-9.125 2.14345,0 2.51172,-1.0345 2.51172,-7.06641 0,-3.88665 0.7036,-7.77002 1.56445,-8.63086 1.56382,-1.56382 0.66589,-6.93331 -5.01171,-29.94922 -2.37287,-9.61915 -2.39606,-9.36195 0.78125,-8.35351 3.63248,1.1529 3.41239,-0.52546 -1.54297,-11.77539 -2.31527,-5.25625 -4.21571,-11.17701 -4.22266,-13.15625 -0.0144,-4.09376 5.81303,-13.62043 9.55859,-15.625 2.86741,-1.53459 5.26708,0.48726 48.40235,40.79101 l 26.19531,24.47657 0.90039,18.97851 c 0.49489,10.43814 0.70662,25.87723 0.4707,34.31055 -0.39121,13.98502 -0.64684,15.31545 -2.90429,15.125 -2.09397,-0.17666 -2.34325,0.43928 -1.61328,4 1.89548,9.24599 3.24178,23.87388 4.00586,43.54297 0.44155,11.36666 1.14608,26.21669 1.5664,32.99999 l 0.76563,12.332 h 11.70117 11.70117 l 0.69922,-4.332 c 0.38474,-2.3833 0.18969,-23.234 -0.43164,-46.33398 -0.62134,-23.09997 -1.15728,-59.4903 -1.19141,-80.86719 l -0.0605,-38.86718 17,-15.22266 c 28.071,-25.13663 52.63555,-44.40116 65.00585,-50.97851 7.23687,-3.84788 9.97224,-3.25444 18.97071,4.11914 7.83616,6.42114 9.22912,9.8167 10.02929,24.4414 0.59853,10.93928 1.06859,12.87521 3.50977,14.4961 1.66658,1.10656 2.82517,3.30227 2.83594,5.375 0.0321,6.18365 1.40397,8.95189 5.13281,10.35937 3.93536,1.48543 12.18164,12.7628 12.18164,16.6582 0,3.23328 14.94711,19.01557 20.50781,21.6543 2.45761,1.16622 6.68817,4.83029 9.40235,8.14258 2.91536,3.55784 6.04647,6.02344 7.65234,6.02344 1.49504,0 4.5009,1.4987 6.67969,3.33203 2.5417,2.1387 5.60273,3.33398 8.53906,3.33398 3.269,0 5.7747,1.14597 8.77344,4.01172 2.30897,2.20658 4.41318,3.7997 4.67383,3.53906 0.26065,-0.26065 -0.4353,-2.64702 -1.54493,-5.30273 -1.10961,-2.65571 -2.01757,-6.94884 -2.01757,-9.53906 0,-2.97928 -1.01032,-5.7193 -2.75,-7.45899 -3.32814,-3.32813 -2.72647,-6.07052 1.20703,-5.5 3.50931,0.50899 3.7292,-1.93983 0.57617,-6.4414 -1.26564,-1.80695 -2.37143,-5.09065 -2.45703,-7.29688 -0.0856,-2.20622 -1.75046,-6.34494 -3.69922,-9.19726 -1.94876,-2.85234 -3.54297,-6.85986 -3.54297,-8.9043 0,-2.37689 -1.20254,-4.66129 -3.33398,-6.33789 -3.81127,-2.99795 -4.20016,-4.23828 -1.33203,-4.23828 2.84095,0 2.48326,-1.8867 -1.18165,-6.24219 -1.74948,-2.07915 -4.08809,-5.95282 -5.19726,-8.60742 -1.58533,-3.79423 -3.32893,-5.32785 -8.15234,-7.16992 -6.09162,-2.32641 -7.36242,-3.73249 -4.80274,-5.31446 2.33279,-1.44174 1.45165,-2.9612 -2.7207,-4.68945 -5.5287,-2.29006 -10.80206,-6.59437 -9.88867,-8.07227 1.21995,-1.97392 -6.97457,-4.83171 -24.63086,-8.59179 -20.93429,-4.45817 -30.51644,-7.98376 -32.29297,-11.88282 -1.75202,-3.84526 0.67008,-9.74834 9.85742,-24.0332 8.91365,-13.85932 26.50692,-48.58629 29.48437,-58.19726 3.60266,-11.629 6.44955,-43.3763 3.62891,-40.4668 -0.67539,0.69667 -3.7277,9.96629 -6.7832,20.59961 -6.61036,23.00445 -9.65532,30.63164 -15.46289,38.72461 -2.3904,3.33105 -5.62044,9.32976 -7.17774,13.33203 -4.40754,11.3274 -9.08836,19.7386 -16.64648,29.91211 -7.96622,10.72281 -20.05445,22.46883 -22.33985,21.70703 -5.36595,-1.78865 -4.17901,-21.45247 2.42969,-40.23047 5.07473,-14.41933 7.59103,-32.89401 4.72071,-34.66797 -0.83106,-0.5136 -1.51172,-3.75419 -1.51172,-7.20117 0,-4.82324 -0.61376,-6.65195 -2.66602,-7.93359 -1.76624,-1.10304 -2.67398,-3.12366 -2.6875,-5.98633 -0.0232,-4.9089 -1.75616,-8.32227 -4.22656,-8.32227 -0.94897,0 -2.12351,-2.60761 -2.70117,-6 -0.68993,-4.05174 -2.07773,-6.77001 -4.27344,-8.37304 -1.78833,-1.30562 -3.66507,-4.30694 -4.17188,-6.66797 -0.5068,-2.36105 -1.49819,-5.39216 -2.20312,-6.73633 -1.19831,-2.28494 -1.44116,-2.30013 -3.73242,-0.22656 -2.32785,2.10667 -2.58626,1.9124 -5.15235,-3.88868 -2.1648,-4.89389 -3.36112,-6.10742 -6.01953,-6.10742 -2.18276,0 -4.31615,-1.40414 -6.23828,-4.10351 -1.60677,-2.2565 -3.40677,-3.6065 -4,-3 -0.59324,0.6065 -2.00161,6.42038 -3.12891,12.91797 -1.99259,11.48506 -3.96105,16.19483 -6.1914,14.8164 -2.67517,-1.65334 -2.41852,2.62802 0.6914,11.5293 4.02953,11.53341 3.97973,10.92752 0.78321,9.2168 -4.19085,-2.24288 -4.47484,0.60355 -0.78516,7.88476 3.93581,7.76694 7.37109,20.04548 7.3711,26.35156 0,2.526 1.07009,5.45682 2.52343,6.91016 2.25168,2.25169 2.30546,2.7414 0.50782,4.53906 -2.64448,2.64447 -1.60873,4.06057 6.99218,9.5625 3.9496,2.52653 8.09499,6.35957 9.21094,8.51758 1.11595,2.15801 4.59098,6.11627 7.72266,8.79688 7.92417,6.7828 8.94029,9.21709 8.99414,21.52929 0.0396,9.05797 -0.44024,11.53523 -2.97657,15.33399 -3.61223,5.41015 -36.97621,32.46188 -48.30468,39.16601 l -8.00391,4.73633 -0.66601,-61.68555 c -0.36667,-33.92747 -1.15282,-62.43685 -1.7461,-63.35351 -0.59328,-0.91667 -1.93186,-1.66602 -2.97461,-1.66602 -1.04275,0 -2.28951,-1.57187 -2.77148,-3.49219 -1.68391,-6.70921 5.27431,-92.00112 9.49804,-116.41992 1.06988,-6.18534 1.67439,-11.51701 1.34375,-11.84765 -0.33065,-0.33065 -2.17195,0.42761 -4.09179,1.68554 -1.91985,1.25794 -3.88863,1.8905 -4.375,1.40625 -2.85712,-2.84468 -0.4746,-109.05705 2.66015,-118.59179 2.41932,-7.35867 7.99923,-12.42347 24.90821,-22.61133 19.38555,-11.68003 29.16196,-15.22631 46.96679,-17.03906 l 14.39454,-1.4668 17.83398,18.18945 c 9.80864,10.00339 18.83893,18.1875 20.06641,18.1875 1.22746,0 8.09271,2.3497 15.25781,5.22071 17.09531,6.84999 45.64942,11.06345 48.1875,7.11132 0.46224,-0.71977 4.39002,-1.59727 8.72851,-1.94922 6.1089,-0.49555 8.44037,-1.31967 10.33399,-3.6582 1.34484,-1.6608 2.44531,-3.75955 2.44531,-4.66406 0,-2.76803 -11.02697,-12.74551 -15.30469,-13.84766 -2.71169,-0.69867 -4.16832,-1.99292 -4.45507,-3.95898 -0.32582,-2.23388 -1.33262,-2.91992 -4.2793,-2.91992 -2.31031,0 -5.07716,-1.26901 -6.9082,-3.16797 -1.67968,-1.74196 -4.63151,-3.53632 -6.56055,-3.98633 -1.9551,-0.45609 -3.81814,-2.00344 -4.20899,-3.49805 -0.46062,-1.76144 -1.8151,-2.68164 -3.95117,-2.68164 -1.78833,0 -4.36763,-1.23236 -5.73047,-2.73828 -1.97104,-2.17799 -3.46563,-2.57146 -7.31054,-1.92187 -3.51166,0.59329 -5.30531,0.2484 -6.5586,-1.26172 -2.25821,-2.72098 -12.47811,-2.69124 -24.73242,0.0723 -17.12309,3.86151 -22.00969,3.84147 -33.95508,-0.13672 -7.88885,-2.62722 -10.69337,-4.13945 -10.17578,-5.48828 1.92568,-5.01824 10.52396,-15.50723 20.0957,-24.51758 23.77656,-22.38202 26.15472,-25.06869 25.2793,-28.55664 -0.55438,-2.20881 0.718,-6.65382 3.96875,-13.85351 2.63245,-5.83029 4.77072,-11.72524 4.75195,-13.09961 -0.0365,-2.67183 -3.87705,3.09349 -15.28125,22.93164 -9.08558,15.80481 -15.1408,21.9043 -21.74804,21.9043 h -5.06836 l -1.64258,7.94531 c -0.90266,4.3702 -2.42005,8.72473 -3.37305,9.67773 -0.95299,0.95299 -1.48501,2.47856 -1.18164,3.38868 0.30337,0.91011 -0.18368,1.65429 -1.08203,1.65429 -0.89835,0 -6.86173,3.30065 -13.2539,7.33399 -6.39219,4.03332 -12.56195,7.33203 -13.70899,7.33203 -2.99658,0 -5.23431,-7.7201 -3.74414,-12.91602 0.6658,-2.32152 3.36426,-8.61599 5.99805,-13.98633 8.59704,-17.5294 12.6081,-39.75128 8.00586,-44.35351 -1.57013,-1.57013 -1.88669,-3.45558 -1.23243,-7.32813 0.73257,-4.33606 0.4458,-5.44745 -1.70703,-6.59961 -1.60628,-0.85965 -2.91524,-3.42824 -3.44922,-6.76757 -0.63977,-4.00096 -1.48443,-5.38086 -3.28906,-5.38086 -1.83529,0 -2.72537,-1.54561 -3.65039,-6.33399 -0.95139,-4.92493 -1.84511,-6.42237 -4.01562,-6.73242 -1.62885,-0.23267 -4.02762,-2.60013 -5.76172,-5.68555 -1.63438,-2.90797 -3.49916,-4.9621 -4.14258,-4.56445 -0.64343,0.39766 -2.51269,-1.09406 -4.1543,-3.31445 -1.6416,-2.22039 -3.39435,-4.03711 -3.89648,-4.03711 -0.50212,0 -1.21203,3.10086 -1.57617,6.89062 -0.40464,4.2111 -1.50718,7.50886 -2.83594,8.48047 -1.19582,0.87441 -2.17383,3.40879 -2.17383,5.63281 0,2.50328 -0.82617,4.36206 -2.16797,4.87696 -1.73336,0.66515 -2.03713,2.17961 -1.51953,7.5664 0.46905,4.88144 0.0984,7.2844 -1.3457,8.72852 -1.7681,1.76809 -1.6776,2.99769 0.81054,10.9082 5.22532,16.61273 7.29319,28.15742 5.44141,30.38867 -1.38501,1.66883 -0.52405,3.14776 5.22656,8.97071 3.78773,3.83536 6.88868,7.61263 6.88868,8.39258 0,0.77994 1.16294,2.47197 2.58593,3.75976 3.2424,2.93433 6.7461,13.00584 6.7461,19.39258 0,5.94988 -3.28502,9.31157 -17.45118,17.85156 -15.32278,9.23726 -27.80115,14.77502 -29.48828,13.08789 -3.87773,-3.87773 -2.00458,-126.89555 2.23633,-146.88867 1.87473,-8.83809 1.51942,-12.05457 -1.04687,-9.48828 -4.66647,4.66646 -4.99775,-0.4545 -3.3125,-51.2168 0.82775,-24.9333 1.08034,-47.57532 0.56054,-50.3164 -0.54789,-2.88924 -2.04838,-5.57521 -3.56836,-6.38868 -0.61961,-0.3316 -1.17092,-0.53292 -1.66211,-0.52148 z m -38.73046,131.53711 c 1.57466,-0.14166 1.56569,3.482 -0.14258,9.23437 -1.13323,3.81601 -2.06196,11.17972 -2.06446,16.36329 -0.006,13.27244 -2.62078,39.64401 -4.16992,42.06445 -0.88869,1.38853 -1.0761,-0.28439 -0.59179,-5.30664 0.38894,-4.03333 1.04339,-16.0327 1.45312,-26.66602 0.7413,-19.23843 2.7408,-34.15639 4.74414,-35.39453 0.28926,-0.17877 0.54653,-0.27468 0.77149,-0.29492 z m 83.64843,2.87109 c 0.19455,0.0365 0.45406,0.34216 0.77735,0.89453 3.59273,6.13859 9.71252,46.8355 9.11133,60.58985 l -0.40625,9.33398 -1.61524,-11.33398 c -0.88772,-6.23333 -3.1357,-20.9327 -4.99609,-32.66602 -3.06653,-19.34042 -3.92164,-27.01538 -2.8711,-26.81836 z m 96.50196,125.83203 c 3.50599,0.0933 28.38518,10.35143 33.95117,14.25 5.35001,3.7473 -1.29649,2.44428 -12.30469,-2.41211 -13.5348,-5.97102 -20.98297,-9.87152 -22.00391,-11.52343 -0.1398,-0.22622 -0.005,-0.32411 0.35743,-0.31446 z m -243.90821,8.73047 c 0.30231,0.0227 -0.32669,0.53641 -1.77929,1.68946 -13.22464,10.49745 -73.941383,32.0231 -69.343754,24.58398 0.447286,-0.72372 7.832791,-3.48872 16.41211,-6.14453 19.978234,-6.18445 30.941454,-10.08748 40.931644,-14.57227 4.39999,-1.97523 9.50065,-4.12951 11.33398,-4.78711 1.41225,-0.50655 2.21018,-0.78717 2.44531,-0.76953 z m 48.95118,226.35742 c 0.86443,0.21017 -0.3327,8.13628 -4.10743,22.84961 -2.68784,10.47687 -5.97633,24.44884 -7.30859,31.04883 l -2.42188,12 -0.11328,-8.39062 c -0.12314,-9.19284 2.32928,-22.60825 7.20313,-39.4043 3.61754,-12.46664 5.98531,-18.28896 6.74805,-18.10352 z m 105.33203,5.23243 c 1.34051,0 9.5041,18.84336 12.99804,30 3.23107,10.31725 5.9752,26 4.54883,26 -0.38401,0 -4.28052,-10.95067 -8.6582,-24.33399 -8.56457,-26.18334 -10.10256,-31.66601 -8.88867,-31.66601 z m 87.97851,130 5.47656,4.31054 c 6.08461,4.78911 17.25609,18.1312 25.41602,30.35547 8.24827,12.35661 22.16025,36.68545 21.4082,37.4375 -0.37033,0.37033 -3.65292,-3.4025 -7.29297,-8.38281 -3.64004,-4.98033 -12.52453,-17.75535 -19.74414,-28.38867 -7.2196,-10.63333 -15.85732,-22.93204 -19.19531,-27.33203 z m -251.75586,30.875 c 0.24404,-0.0577 0.50476,0.25789 0.78125,0.96289 0.94361,2.40595 -1.40389,50.24266 -2.52148,51.38281 -0.29951,0.30555 -0.50906,-9.29315 -0.4668,-21.33203 0.0685,-19.5078 0.88925,-30.70207 2.20703,-31.01367 z"
         transform="translate(-33.355085,-14.267116)" />
      <path
         style="fill:#2a7fff"
         d="m 231.11856,65.666672 c 1.2915,-2.119727 -3.209,-21.040359 -5.39154,-22.666669 -3.29312,-2.453854 -10.30757,-2.041792 -12.83787,0.754157 -3.1135,3.440387 -4.24138,10.198359 -2.02072,12.107701 9.18662,7.898731 18.62664,12.469447 20.25013,9.804811 z"
         id="path89"
         transform="translate(-33.355085,-14.267116)" />
      <path
         style="fill:#2a7fff"
         d="m 284.45968,74.486621 c 12.68751,-3.785802 14.20699,-5.257469 14.20699,-13.759933 0,-3.773009 -0.72,-7.580017 -1.6,-8.460017 -2.62747,-2.627467 -12.2741,-1.940557 -16.20839,1.154155 -5.3191,4.184011 -10.80822,23.912513 -6.65324,23.912513 0.39288,0 5.00747,-1.281023 10.25464,-2.846718 z"
         id="path86"
         transform="translate(-33.355085,-14.267116)" />
      <path
         style="fill:#2a7fff"
         d="M 198.33333,113.27046 C 203.65,110.32194 208,107.43358 208,106.85189 c 0,-1.3373 -15.22113,-4.18522 -22.36854,-4.18522 -4.38684,0 -6.03915,0.76623 -8.84627,4.10231 -4.42556,5.25948 -4.3496,6.05619 0.88148,9.24564 6.1997,3.78003 9.75334,3.30818 20.66666,-2.74416 z"
         id="path80"
         transform="translate(-33.355085,-14.267116)" />
      <path
         style="fill:#2a7fff"
         d="m 304.44764,137.23365 c -0.43064,-6.74977 -3.24777,-14.54458 -5.73829,-15.87746 -3.17598,-1.69974 -21.55451,-5.62214 -22.39667,-4.77997 -1.16091,1.16091 5.47758,15.37053 9.40916,20.14023 3.73753,4.53427 4.23606,4.72387 11.42643,4.34568 7.15291,-0.37623 7.50775,-0.56234 7.29937,-3.82848 z"
         id="path79"
         transform="translate(-33.355085,-14.267116)" />
      <path
         style="fill:#2a7fff"
         d="m 234.52564,165.47437 c 3.31303,-3.31303 4.35294,-10.64949 3.13186,-22.09496 l -0.99083,-9.28727 -6.63637,9.71966 c -5.08966,7.45435 -6.63636,10.90033 -6.63636,14.78552 0,8.66317 5.77676,12.23199 11.1317,6.87705 z"
         id="path77"
         transform="translate(-33.355085,-14.267116)" />
      <path
         style="fill:#ffcc00"
         d="m 357.91717,221.00002 c -1.4297,-4.61595 -7.31555,-16.06188 -9.58555,-18.64059 -2.7088,-3.07718 -10.45075,-4.47368 -13.0129,-2.34728 -2.32282,1.92776 -2.59115,7.86621 -0.55717,12.33032 1.73018,3.79734 4.92737,5.89329 13.81738,9.05814 9.25311,3.29411 10.46649,3.24205 9.33824,-0.40059 z"
         id="path73"
         transform="translate(-33.355085,-14.267116)" />
      <path
         style="fill:#ffcc00"
         d="m 411.95139,209.26413 c 6.93184,-8.32945 8.71753,-14.72853 5.11528,-18.33078 -3.78317,-3.78316 -15.21772,0.0722 -15.97201,5.38529 -0.63133,4.44695 1.76883,21.01471 3.04439,21.01471 0.60339,0 4.11894,-3.63115 7.81234,-8.06922 z"
         id="path74"
         transform="translate(-33.355085,-14.267116)" />
      <path
         style="fill:#ffcc00"
         d="m 449.36002,268.65289 c 8.09831,-4.1878 7.61224,-10.89861 -1.33468,-18.42695 -3.83076,-3.22336 -4.36513,-3.32108 -9.07479,-1.65941 -2.75238,0.97109 -8.2841,2.21671 -12.2927,2.76804 l -7.28836,1.0024 5.98192,5.31984 c 4.81094,4.27847 17.95232,12.94217 19.7148,12.99737 0.21975,0.007 2.15197,-0.8937 4.29381,-2.00129 z"
         id="path63"
         transform="translate(-33.355085,-14.267116)" />
      <path
         style="fill:#ffcc00"
         d="M 346.03128,274.54033 356.66667,263.7473 344,264.27818 c -15.25931,0.63954 -20.47311,2.70847 -21.11899,8.38038 -0.36918,3.24195 0.48873,4.76847 4.66666,8.30365 2.81545,2.38231 5.73307,4.3404 6.48361,4.35131 0.75054,0.0109 6.15054,-4.83703 12,-10.77319 z"
         id="path59"
         transform="translate(-33.355085,-14.267116)" />
      <path
         style="fill:#ffcc00"
         d="m 396.28753,315.05015 c 4.38017,-4.31431 6.37914,-7.37299 6.37914,-9.76092 0,-4.73425 -6.86037,-17.95587 -9.31685,-17.95587 -2.68331,0 -11.21831,17.05686 -11.20927,22.40128 0.008,4.5306 3.84701,11.59872 6.30033,11.59872 0.80714,0 4.33813,-2.82745 7.84665,-6.28321 z"
         id="path49"
         transform="translate(-33.355085,-14.267116)" />
      <path
         style="fill:#808000"
         d="m 139.13715,233.00002 10.23057,-9.66667 -1.53571,-5.75726 c -2.04125,-7.65253 -5.62852,-10.00274 -12.19274,-7.98813 -6.73728,2.06774 -10.73439,5.98251 -9.7716,9.57032 0.41942,1.56295 0.77078,7.49174 0.78079,13.17507 0.01,5.68334 0.52218,10.33334 1.13816,10.33334 0.61597,0 5.72371,-4.35 11.35053,-9.66667 z"
         id="path71"
         transform="translate(-33.355085,-14.267116)" />
      <path
         style="fill:#808000"
         d="m 87.373607,247.93486 c 0.475375,-0.76918 -2.039215,-5.8907 -5.587978,-11.38117 -6.357884,-9.83661 -6.52022,-9.97049 -11.094416,-9.14983 -6.632212,1.18989 -9.209485,2.874 -10.153347,6.63464 -2.013833,8.02375 1.770291,11.91173 13.502777,13.87336 9.551522,1.59697 12.3572,1.60181 13.332964,0.023 z"
         id="path68"
         transform="translate(-33.355085,-14.267116)" />
      <path
         style="fill:#808000"
         d="m 177.66667,292.73529 c 6.66302,-2.80432 6.45595,-5.83559 -0.92486,-13.53863 l -5.92486,-6.18353 -8.75844,0.5577 c -5.72203,0.36435 -9.51416,1.31341 -10.9383,2.73755 -2.01759,2.0176 -1.54653,2.83942 6.32818,11.04011 9.24857,9.63142 9.79022,9.77574 20.21828,5.3868 z"
         id="path55"
         transform="translate(-33.355085,-14.267116)" />
      <path
         style="fill:#808000"
         d="M 64.910464,310.73576 C 68.96032,308.26638 80,295.57321 80,293.38616 c 0,-1.22329 -22.942868,3.28761 -26.556002,5.2213 -3.174264,1.69882 -4.475372,6.92638 -2.812511,11.30003 1.03344,2.71816 2.204501,3.42484 5.668845,3.42088 2.401484,-0.003 6.276043,-1.16942 8.610132,-2.59261 z"
         id="path54"
         transform="translate(-33.355085,-14.267116)" />
      <path
         style="fill:#808000"
         d="m 128.49751,335.77886 c 0.90205,-2.51724 0.001,-6.00972 -4,-15.51047 -2.8403,-6.74394 -5.54845,-12.26321 -6.01811,-12.26504 -0.46966,-0.002 -2.16621,4.86004 -3.7701,10.80415 -3.27909,12.15247 -2.55077,16.35941 3.6808,21.26117 2.95229,2.32227 3.70287,2.4201 6.15285,0.80194 1.53471,-1.01364 3.31426,-3.30493 3.95456,-5.09175 z"
         id="path45"
         transform="translate(-33.355085,-14.267116)" />
      <path
         style="fill:#808000"
         d="m 420.19997,539.1795 c 9.69584,-7.46078 11.51384,-10.76582 9.11179,-16.56488 -1.9425,-4.6896 -6.54775,-7.02446 -11.4354,-5.79774 -5.57452,1.39912 -7.20969,5.36358 -7.20969,17.47984 0,6.07016 0.34557,11.03666 0.76794,11.03666 0.42237,0 4.36678,-2.76925 8.76536,-6.15388 z"
         id="path43"
         transform="translate(-33.355085,-14.267116)" />
      <path
         style="fill:#808000"
         d="m 370.04414,554.59529 c 2.2953,-3.71387 -12.05399,-23.92858 -16.98555,-23.92858 -3.90491,0 -6.39192,4.4781 -6.39192,11.50925 0,8.35038 2.40686,10.66707 12.9164,12.4325 9.17502,1.54125 9.50064,1.54084 10.46107,-0.0132 z"
         id="path42"
         transform="translate(-33.355085,-14.267116)" />
      <path
         style="fill:#808000"
         d="m 461.23989,599.33159 c 1.35772,-1.35773 2.01131,-4.1563 1.86337,-7.97876 -0.3092,-7.98936 -3.00722,-13.24132 -7.09978,-13.82044 -3.80119,-0.53789 -21.55435,2.28735 -24.04471,3.82647 -2.24148,1.38531 1.8671,7.106 11.00223,15.31928 6.1685,5.546 7.46229,6.16061 11.56652,5.49459 2.54163,-0.41245 5.56219,-1.69097 6.71237,-2.84114 z"
         id="path27"
         transform="translate(-33.355085,-14.267116)" />
      <path
         style="fill:#808000"
         d="m 354.59035,614.03951 c 3.13336,-1.62032 10.35093,-10.06215 13.79846,-16.13899 1.14238,-2.01362 -16.18817,2.45239 -23.78209,6.12855 -6.85063,3.31633 -10.44121,8.66047 -7.19758,10.71271 2.97873,1.88464 12.96828,1.47632 17.18121,-0.70227 z"
         id="path25"
         transform="translate(-33.355085,-14.267116)" />
      <path
         style="fill:#808000"
         d="m 409.26758,646.07004 c 1.68616,-1.79484 3.06575,-4.86874 3.06575,-6.83089 0,-3.54716 -6.76209,-19.2391 -8.29066,-19.2391 -0.73573,0 -6.52469,14.05881 -8.61903,20.9318 -0.62123,2.03869 -0.0603,3.76491 1.84149,5.66666 3.65517,3.65517 8.26271,3.4523 12.00245,-0.52847 z"
         id="path17"
         transform="translate(-33.355085,-14.267116)" />
      <path
         style="fill:#ffcc00"
         d="m 111.53451,552.17336 2.36185,-9.82668 -3.6892,-3.17332 c -6.1372,-5.27901 -10.982356,-4.00117 -16.445985,4.33738 -2.796457,4.26794 -1.625545,7.90231 5.79236,17.97883 l 6.254835,8.49658 1.68214,-3.99305 c 0.92518,-2.19618 2.74498,-8.41506 4.044,-13.81974 z"
         id="path39"
         transform="translate(-33.355085,-14.267116)" />
      <path
         style="fill:#ffcc00"
         d="m 171.15565,584.90574 c 4.22413,-2.76775 6.5636,-6.93679 5.58689,-9.95606 -1.02284,-3.16186 -8.90787,-8.28297 -12.75338,-8.28297 -4.41964,0 -12.14386,5.66623 -19.56374,14.35129 l -6.27579,7.34588 14.79442,-0.60955 c 10.80402,-0.44514 15.7161,-1.21347 18.2116,-2.84859 z"
         id="path33"
         transform="translate(-33.355085,-14.267116)" />
      <path
         style="fill:#ffcc00"
         d="m 62.88946,606.79912 c 3.177463,-1.39384 6.977207,-3.49249 8.443873,-4.66366 2.637336,-2.10598 2.626103,-2.1656 -1.02126,-5.42008 -8.180567,-7.29937 -20.983721,-7.14574 -20.973756,0.25167 0.0053,3.94017 4.455765,12.36633 6.531545,12.36633 0.683315,0 3.842134,-1.14042 7.019598,-2.53426 z"
         id="path26"
         transform="translate(-33.355085,-14.267116)" />
      <path
         style="fill:#ffcc00"
         d="M 161.42099,655.95314 C 163.4798,654.8513 164,653.12708 164,647.405 c 0,-6.21498 -0.49547,-7.58249 -3.72697,-10.28643 -4.36547,-3.65278 -17.275,-9.89432 -18.31455,-8.85477 -0.39377,0.39377 0.81221,6.04551 2.67995,12.55943 4.3375,15.12737 8.97513,19.30832 16.78256,15.12991 z"
         id="path14"
         transform="translate(-33.355085,-14.267116)" />
      <path
         style="fill:#ffcc00"
         d="m 98.546907,664.81102 c 0.847051,-1.02063 2.136673,-7.10598 2.865823,-13.52298 0.72915,-6.41701 1.86256,-14.13195 2.5187,-17.14431 l 1.19297,-5.47701 -7.378294,8 c -15.173194,16.4517 -16.850543,20.52361 -11.013687,26.73666 3.405067,3.62452 9.383481,4.33683 11.814488,1.40764 z"
         id="path13"
         transform="translate(-33.355085,-14.267116)" />
    </g>
    <g
       id="layer1"
       inkscape:label="02"
       transform="translate(-33.355085,-14.267116)">
      <path
         id="path87"
         style="fill:#c83737"
         d="m 253.46837,17.20071 c -6.88513,-0.05738 -13.70057,3.317038 -17.66602,10.779297 -4.96657,9.346196 -2.45765,34.590388 4.29102,43.169922 3.1868,4.051371 4.26723,4.29703 6.59179,1.496093 1.16078,-1.398644 1.40877,-4.302571 0.80664,-9.425781 -0.5744,-4.88724 -0.40859,-7.12145 0.48633,-6.568359 0.74572,0.460883 1.36846,2.153046 1.38477,3.759765 0.0163,1.60672 1.15981,4.392268 2.54101,6.189453 2.14353,2.789098 2.82228,3.009759 4.63672,1.503907 1.16915,-0.970312 2.12696,-3.725464 2.12696,-6.121094 0,-4.227597 4.30613,-11.44429 5.88867,-9.869141 0.43169,0.429677 -0.43772,4.32903 -1.93164,8.666016 -3.21743,9.34048 -3.01668,13.21875 0.68359,13.21875 5.85603,0 13.80203,-24.003209 12.12305,-36.621094 C 273.74389,24.697382 263.53124,17.284567 253.46837,17.20071 Z m -0.41211,8.277344 c 0.97202,0.0038 2.00899,0.04526 3.11133,0.125 7.93493,0.573961 14.49999,4.480363 14.5,8.628906 0,2.370101 -2.56328,2.258192 -3.48829,-0.152344 -2.39544,-6.242429 -13.82713,-8.173199 -20.45312,-3.455078 -4.02254,2.8643 -4.0586,2.865394 -4.05859,0.179687 0,-3.530408 3.5845,-5.353077 10.38867,-5.326171 z" />
      <path
         id="path84"
         style="fill:#c83737"
         d="m 193.44298,58.714382 c -7.66853,0.08006 -13.54837,3.3391 -16.54883,9.662109 -2.76524,5.827295 -2.91862,18.043798 -0.27344,21.820313 5.46251,7.798845 36.62009,14.147556 48.06836,9.794921 5.88561,-2.237705 3.17707,-4.638575 -5.47656,-4.855468 -14.27307,-0.35774 -14.49361,-0.389195 -13.05664,-1.826172 0.74596,-0.745951 6.29294,-1.735924 12.32617,-2.201172 l 10.96875,-0.845703 -8.01172,-4.515625 c -4.40638,-2.483203 -8.31928,-5.015353 -8.69727,-5.626953 -0.37799,-0.611602 3.0424,-0.334221 7.60157,0.617187 8.16474,1.703823 11.65625,0.996237 11.65625,-2.365234 0,-2.559604 -8.69274,-9.354541 -17.9336,-14.017578 -7.61287,-3.841535 -14.65864,-5.70289 -20.62304,-5.640625 z m -1.51368,6.541015 c 0.27801,-0.0033 0.5018,0.06625 0.6543,0.21875 0.32365,0.323651 -1.1742,3.213804 -3.33008,6.423828 -4.61414,6.870296 -5.04503,12.97919 -1.2539,17.798829 1.46666,1.864562 2.66797,3.745355 2.66797,4.179687 0,1.907162 -2.6995,0.504889 -5.23829,-2.722656 -3.11539,-3.960579 -3.77897,-14.129426 -1.28125,-19.611328 1.24398,-2.730237 5.83523,-6.263786 7.78125,-6.28711 z" />
      <path
         id="path82"
         style="fill:#c83737"
         d="m 306.48399,75.333522 c -13.64274,0 -15.90837,0.355338 -22.76758,3.570313 -5.53568,2.594632 -7.8472,4.486285 -8.45898,6.923828 -1.68044,6.695376 0.13873,7.104954 16.46484,3.703125 7.92184,-1.650654 6.65061,0.797913 -2.11133,4.066406 -3.82874,1.42825 -6.94335,3.425868 -6.94335,4.455078 0,1.076835 2.66139,2.642828 6.29101,3.701168 l 6.29102,1.83399 -9.08203,0.73047 c -10.25291,0.82301 -13.21481,2.5391 -9.97461,5.77929 5.73364,5.73365 33.35431,7.89949 43.14062,3.38282 14.25787,-6.58043 17.20153,-20.917302 6.77149,-32.976566 l -4.47071,-5.169922 z m 5.70117,6.044922 c 3.82512,-0.07763 7.6861,4.42383 9.38282,10.941406 1.49154,5.729433 1.37208,6.87871 -1.27735,12.33203 -1.6387,3.37294 -3.8515,6.01563 -5.03711,6.01563 -1.76562,0 -1.65753,-0.57963 0.65039,-3.51368 1.85133,-2.35357 2.76368,-5.464 2.76368,-9.42187 0,-6.535645 -1.63692,-10.431852 -5.86329,-13.964844 -2.31063,-1.931555 -2.42005,-2.352121 -0.61914,-2.388672 z" />
      <path
         style="fill:#c83737"
         d="m 216.30472,150.62936 c 9.42411,-6.24227 21.07758,-22.65583 20.98953,-29.56314 -0.0423,-3.31593 -0.56441,-2.87251 -10.39289,8.82607 -4.72306,5.62173 -4.9047,3.21242 -0.40234,-5.33674 5.59648,-10.62671 4.18048,-12.08574 -7.05515,-7.26959 -3.36079,1.44061 -6.11054,2.45633 -6.11054,2.25716 0,-0.19917 3.99568,-3.29596 8.87928,-6.88175 4.8836,-3.58579 8.17035,-6.75593 7.30389,-7.04475 -3.10798,-1.036 -19.67589,5.10786 -27.84983,10.32751 -8.17557,5.2207 -9.66438,7.07587 -7,8.72255 C 195.4,125.1199 196,127.72181 196,130.44869 c 0,8.45905 6.87861,14.78882 16.26712,14.96917 4.11853,0.0791 4.1985,0.16502 1.25193,1.34498 -7.3563,2.94581 -21.48627,-6.11309 -21.53947,-13.80922 -0.0291,-4.21637 -2.0271,-6.80983 -4.51168,-5.85641 -3.54854,1.3617 -3.20341,8.75865 0.70667,15.14535 3.26665,5.33574 13.81702,12.42412 18.4921,12.42412 1.94854,0 6.28567,-1.81679 9.63805,-4.03732 z"
         id="path78" />
      <path
         id="path75"
         style="fill:#c83737"
         d="m 267.31407,115.99954 c -2.77617,0 -2.51278,5.23747 0.68555,13.65234 3.17476,8.3529 3.10595,7.68164 0.77343,7.68164 -1.08334,0 -2.82444,-2.80762 -4.07226,-6.56445 -4.01037,-12.07407 -8.11673,-11.44271 -10.00977,1.53906 -0.74723,5.12423 -1.07006,5.84058 -1.1914,2.64844 -0.0915,-2.40689 -1.06595,-6.52927 -2.16602,-9.16211 -1.60916,-3.85126 -2.36179,-4.4864 -3.85156,-3.25 -2.82783,2.34689 -4.81719,12.16568 -4.80274,23.71289 0.0156,12.46384 4.08965,22.93912 10.21289,26.25781 5.47021,2.96476 13.5696,2.60496 19.64844,-0.87109 8.13519,-4.65194 10.78771,-9.15269 10.63672,-18.05664 -0.22056,-13.00735 -10.59465,-37.58789 -15.86328,-37.58789 z m 10.88086,37.88086 c 0.35237,-0.0392 0.45152,0.48323 0.45703,1.49023 0.0349,6.38307 -8.15797,12.62891 -16.56445,12.62891 -3.35898,0 -5.96228,-1.13729 -9.06641,-3.96094 -4.85828,-4.41931 -3.75432,-5.04411 3.53125,-2 6.64648,2.77708 14.1043,0.75466 18.69531,-5.07031 1.62361,-2.06 2.49423,-3.03754 2.94727,-3.08789 z" />
      <path
         style="fill:#800080"
         d="m 378.76772,229.52217 c -0.72935,-1.36281 -2.70046,-3.39173 -4.38024,-4.5087 -4.12821,-2.74505 -8.56992,-10.34679 -6.04565,-10.34679 2.03492,0 7.41743,5.39613 10.97225,11 1.27927,2.01667 2.94088,3.66667 3.69247,3.66667 1.28159,0 1.12161,-2.91216 -1.02545,-18.66667 -0.62846,-4.6114 -0.60422,-4.59562 2.04714,1.33334 4.98871,11.15573 7.29675,15.10442 9.67638,16.55475 5.46182,3.32885 6.51124,-7.40422 2.32452,-23.77417 -6.48933,-25.37303 -17.86894,-34.20687 -32.79596,-25.45905 -9.17898,5.37924 -14.05974,16.81105 -9.95116,23.30777 1.03825,1.64172 1.38236,1.53272 2.10457,-0.66667 2.60443,-7.93148 4.06086,-10.35772 8.77305,-14.61491 5.76258,-5.20614 12.69863,-6.29898 16.41179,-2.58582 3.13033,3.13033 2.61352,3.56005 -3.11718,2.59186 -9.19143,-1.55289 -15.64907,3.65735 -18.73445,15.11556 -1.27431,4.73245 -1.11924,6.40409 1.04016,11.2128 3.71533,8.27357 13.07371,18.31788 17.06693,18.31788 2.77078,0 3.06554,-0.37632 1.94083,-2.47785 z"
         id="path72" />
      <path
         id="path69"
         style="fill:#800080"
         d="m 442.90196,196.53469 c -7.90209,-0.18653 -17.55458,5.82371 -31.94531,19.58789 -6.48195,6.19974 -6.9744,7.09647 -6.19336,11.25977 1.60919,8.57772 3.9043,8.55579 11.9082,-0.11328 3.97159,-4.30165 7.5475,-7.49546 7.94727,-7.0957 0.39977,0.39977 -1.7067,4.49287 -4.68164,9.0957 -2.97495,4.60282 -5.1172,8.6621 -4.75977,9.01953 0.35742,0.35742 3.69077,-0.36096 7.4082,-1.5957 9.70551,-3.22365 10.6044,-2.01635 2.47852,3.32812 -3.88461,2.55494 -7.2692,5.75784 -7.52148,7.11719 -0.40964,2.20713 0.16247,2.3719 5.33398,1.54687 3.18507,-0.50812 8.79037,-2.28432 12.45703,-3.94921 17.10449,-7.76652 30.31774,-21.97883 28.2168,-30.34961 -1.2946,-5.1581 -11.07659,-15.35568 -16.41992,-17.11914 -1.36236,-0.44962 -2.76517,-0.69788 -4.22852,-0.73243 z m -3.03516,6.33594 c 9.90684,-0.2312 20.6231,14.07483 16.22071,22.30078 -2.34879,4.38874 -3.8975,3.34523 -3.22461,-2.17187 0.85052,-6.97355 -3.24146,-13.06973 -11.23242,-16.73633 -5.80834,-2.66511 -6.01881,-2.92491 -2.71875,-3.32422 0.31735,-0.0384 0.6355,-0.0609 0.95507,-0.0684 z" />
      <path
         id="path64"
         style="fill:#800080"
         d="m 332.64415,222.66751 c -4.66887,0 -6.84962,0.84675 -10.55664,4.10156 -11.28462,9.90802 -5.40643,28.61016 10.01758,31.87305 6.09709,1.28981 28.36352,0.78518 32.31835,-0.73243 1.23414,-0.47358 2.24415,-1.33873 2.24415,-1.92187 0,-1.56202 -7.67996,-3.96698 -13.19922,-4.13281 -3.44386,-0.10348 -2.03192,-0.65017 4.99804,-1.9336 5.39021,-0.98407 10.44971,-2.00537 11.24219,-2.26953 0.79248,-0.26416 -3.31875,-3.09171 -9.13476,-6.28515 -10.61753,-5.82984 -12.26788,-9.31831 -1.90821,-4.03321 3.16476,1.61454 7.34234,2.64504 9.76563,2.41016 l 4.23633,-0.41016 -5.71875,-4.22656 c -7.33074,-5.41739 -26.6971,-12.43945 -34.30469,-12.43945 z m 0.0449,4.14453 c 1.52596,0.0501 0.91714,2.11237 -1.92773,5.87304 -5.09747,6.73841 -5.12007,10.98967 -0.0937,17.31446 2.19999,2.76834 4,5.25175 4,5.51758 0,1.39869 -2.91967,0.0986 -6.45118,-2.87305 -7.14019,-6.00807 -6.50305,-20.56572 1.07813,-24.62305 1.5669,-0.83858 2.70091,-1.23176 3.39453,-1.20898 z" />
      <path
         id="path52"
         style="fill:#800080"
         d="m 417.23594,260.2554 c -2.02786,-0.001 -2.96258,1.61342 -3.83203,4.74414 -1.88877,6.80117 -2.10364,6.37184 4.39453,8.85351 6.39261,2.44136 13.56204,8.81446 9.91602,8.81446 -1.14554,0 -5.13473,-2.09987 -8.86523,-4.66602 l -6.78125,-4.66601 0.82421,4.33203 c 0.45409,2.3828 1.97525,6.62686 3.37891,9.43164 4.12661,8.24576 1.89149,8.86785 -3.23437,0.90039 -5.77258,-8.9727 -9.61786,-12.57414 -12.32032,-11.53711 -2.8765,1.10382 -2.54205,4.42526 1.27344,12.62109 4.54586,9.7647 14.55799,22.14518 21.77539,26.92578 6.92226,4.58513 8.21428,4.75814 14.23242,1.90235 6.77873,-3.21672 13.51656,-10.74708 15.29297,-17.0918 3.39259,-12.11712 -2.24443,-20.33068 -23.45898,-34.17969 -6.59527,-4.30543 -10.29746,-6.38309 -12.59571,-6.38476 z m 29.00977,31.95703 c 0.25811,0.0224 0.30247,0.85277 0.3418,2.5957 0.12466,5.52492 -10.92741,18.69709 -15.5,18.47266 -0.59822,-0.0294 -2.75454,-0.959 -4.79297,-2.06446 -4.69948,-2.54857 -3.81071,-3.96687 3.1875,-5.08593 5.42545,-0.86757 11.52901,-5.67538 15.43945,-12.16211 0.70291,-1.16599 1.09648,-1.77566 1.32422,-1.75586 z" />
      <path
         id="path50"
         style="fill:#800080"
         d="m 368.76915,264.6011 c -2.94643,-0.0825 -7.84221,2.84349 -15.99219,9.48242 -14.41414,11.74167 -19.04719,21.396 -14.68164,30.59571 2.30242,4.85198 13.98791,15.34847 17.02344,15.29101 0.85082,-0.0161 3.95007,-1.12097 6.88672,-2.45508 10.59115,-4.81152 25.96228,-25.90809 26.45898,-36.3164 0.29956,-6.27715 -2.46082,-6.1275 -7.00977,0.38086 -2.21189,3.16465 -5.05716,7.21682 -6.32226,9.0039 -3.76989,5.32536 -3.59831,0.78556 0.29883,-7.89844 1.9929,-4.44078 3.27447,-8.4228 2.84765,-8.8496 -0.42682,-0.42682 -4.38821,1.2107 -8.80468,3.63867 -4.41647,2.42796 -8.50558,3.93641 -9.08594,3.35156 -0.58036,-0.58486 1.79596,-3.47393 5.2793,-6.41797 6.60021,-5.57836 7.77677,-8.23574 4.24804,-9.58984 -0.34521,-0.13247 -0.72556,-0.20502 -1.14648,-0.2168 z m -24.50196,24.06641 1.19532,5.07812 c 1.97895,8.41129 3.50024,10.07323 11.31054,12.34375 5.51548,1.6034 7.27013,2.69966 6.95313,4.3457 -0.68308,3.54694 -3.99396,3.24235 -10.64649,-0.97656 -7.4973,-4.75464 -9.1211,-7.4843 -8.94531,-15.03711 z" />
      <path
         id="path66"
         style="fill:#5500d4"
         d="m 100.91759,190.69485 c -3.599665,-0.0367 -7.805976,1.03163 -12.482427,3.20898 -9.35525,4.35582 -11.572386,8.03276 -10.851562,17.99805 1.298283,17.94858 22.930379,48.4919 24.843749,35.07813 0.23486,-1.64651 -1.48031,-6.32756 -3.810546,-10.40039 -4.238783,-7.40863 -4.348128,-11.66291 -0.167969,-6.51172 1.220207,1.50365 4.455755,5.40301 7.191405,8.66601 l 4.97461,5.9336 0.0254,-9.08008 c 0.0164,-5.70691 0.52124,-8.77191 1.35938,-8.25391 0.73333,0.45323 1.34717,2.13938 1.36328,3.7461 0.0161,1.60671 1.18686,5.47122 2.60156,8.58789 1.89136,4.16674 3.34788,5.66601 5.50195,5.66601 2.83586,0 2.90202,-0.33086 2.10547,-10.33398 -1.43782,-18.05631 -6.76976,-33.83225 -13.81445,-40.87696 -2.24795,-2.24794 -5.24018,-3.39103 -8.83984,-3.42773 z m 0.10351,7.46875 c 1.75144,-0.0192 3.49901,0.28212 5.41602,0.91016 6.89153,2.25774 4.87766,4.32819 -3.76953,3.875 -10.108753,-0.52979 -12.730025,0.37445 -14.67188,5.0625 -2.068899,4.99477 -3.996094,6.36193 -3.996094,2.83593 0,-3.72474 7.225009,-10.50718 12.84375,-12.05859 1.451541,-0.40079 2.815501,-0.61009 4.177734,-0.625 z" />
      <path
         id="path61"
         style="fill:#5500d4"
         d="m 171.09727,222.95852 c -7.14931,0.0268 -15.43035,3.18755 -24.0957,9.57422 -10.07525,7.42581 -15.522,14.54819 -14.43555,18.87695 1.19044,4.7431 6.07106,4.18511 12.83594,-1.46679 11.89405,-9.9372 14.50338,-8.67033 4.39648,2.13476 -3.41091,3.64655 -5.94374,6.88829 -5.6289,7.20313 0.31484,0.31485 2.95445,0.019 5.86719,-0.65625 2.91274,-0.67532 6.38236,-1.24227 7.70898,-1.25977 3.91904,-0.0517 1.20898,2.46045 -3.63477,3.36914 -5.77222,1.08288 -12.77734,5.36095 -12.77734,7.80274 0,4.07154 6.70016,4.37651 20.11914,0.91601 26.21714,-6.7609 35.63583,-16.56781 30.02344,-31.26367 -3.86484,-10.11994 -11.18694,-15.26496 -20.37891,-15.23047 z m -1.90039,6.52735 c 4.97198,-0.0882 10.9042,2.84191 12.82617,6.55859 2.97183,5.74688 2.48556,21.28906 -0.66601,21.28906 -0.56321,0 -1.39909,-1.87436 -1.85742,-4.16601 -0.45833,-2.29167 -0.83203,-5.93136 -0.83203,-8.08789 0,-5.73929 -2.06755,-8.70833 -8.37891,-12.03321 -4.89857,-2.5806 -5.23369,-3.02259 -2.59961,-3.43359 0.48828,-0.0762 0.99347,-0.11783 1.50781,-0.12695 z" />
      <path
         id="path56"
         style="fill:#5500d4"
         d="m 65.353132,250.90188 c -25.421667,0.0557 -37.694807,18.74772 -21.509766,35.76172 4.583553,4.81832 5.712199,5.3346 11.617188,5.32031 3.596876,-0.009 9.540368,-0.82079 13.207031,-1.80468 9.520229,-2.55464 20.093925,-7.33759 22.777344,-10.30274 2.066701,-2.28368 2.081549,-2.54297 0.144531,-2.54297 -1.186508,0 -5.200916,1.19936 -8.921875,2.66602 -7.752377,3.0557 -8,3.09977 -8,1.42969 0,-0.68023 3.748703,-3.52894 8.332031,-6.33204 l 8.333985,-5.09765 -9.560547,-0.66602 c -5.257976,-0.36666 -10.01833,-1.12723 -10.578125,-1.68945 -2.093591,-2.10267 2.167237,-3.9542 10.669922,-4.63672 9.782964,-0.78528 12.817234,-2.76157 9.130859,-5.94922 -3.44297,-2.97717 -10.346584,-4.9788 -20.388672,-5.91211 -1.807132,-0.16795 -3.559128,-0.24785 -5.253906,-0.24414 z m -13.84375,8.2793 c 0.836046,0.0537 0.331587,2.2063 -1.509766,6.61328 -2.987666,7.15049 -2.514352,9.44785 3.333985,16.20508 2.933331,3.38919 5.333984,6.42599 5.333984,6.74804 0,1.37502 -3.541195,0.32051 -6.011719,-1.79101 -5.15441,-4.4054 -8.65625,-10.01555 -8.65625,-13.86914 0,-4.34416 2.744399,-10.38471 5.91211,-13.01367 0.737622,-0.61217 1.270507,-0.91361 1.597656,-0.89258 z" />
      <path
         id="path47"
         style="fill:#5500d4"
         d="m 139.41563,279.25735 c -0.39832,0.0416 -0.72381,0.18279 -0.9707,0.42969 -1.72802,1.72802 0.3993,5.92369 6.41406,12.65039 9.07606,10.15035 3.48525,9.16764 -7.77734,-1.36719 -3.52876,-3.30074 -6.41416,-5.47066 -6.41406,-4.82031 9e-5,0.65035 1.49027,5.98295 3.3125,11.84961 3.89589,12.54282 3.68706,11.33398 1.96484,11.33398 -0.76401,0 -3.13869,-3.89935 -5.27734,-8.66601 -3.97748,-8.86503 -7.0866,-10.973 -8.45704,-5.73243 -1.98613,7.59503 7.91454,30.38518 16.01368,36.86133 7.54138,6.03019 11.99804,6.63624 20.07031,2.72852 6.93699,-3.35814 12.37305,-10.77369 12.37305,-16.87891 0,-6.40457 -5.90411,-17.04184 -14.39844,-25.94726 -7.72237,-8.0961 -14.06528,-12.73225 -16.85352,-12.44141 z m 24.03321,33.21094 c 0.35416,-0.007 0.43085,1.11602 0.47265,3.68554 0.0978,6.01504 -3.90658,11.3745 -9.27148,12.41016 -9.32571,1.80027 -11.48818,1.89356 -14.61719,0.63086 -2.69678,-1.08826 -2.94155,-1.55958 -1.33398,-2.57617 1.08234,-0.68445 4.57758,-1.2544 7.76757,-1.26563 4.7941,-0.0169 6.52842,-0.77649 10,-4.38476 2.31,-2.40095 4.91553,-5.55095 5.78907,-7 0.57929,-0.96094 0.95103,-1.49516 1.19336,-1.5 z" />
      <path
         style="fill:#5500d4"
         d="m 98.666667,336.10088 c 5.102993,-3.59156 9.155343,-10.3899 11.935203,-20.02282 3.25458,-11.27796 4.11835,-17.83417 2.66033,-20.19246 -1.8622,-3.01203 -5.33247,1.41317 -6.20405,7.91122 -0.40551,3.02336 -1.55949,6.17938 -2.56439,7.01337 -2.26088,1.87636 -2.30412,0.87873 -0.35569,-8.20647 2.08312,-9.71329 0.17835,-11.07112 -6.749991,-4.81178 -8.891488,8.03293 -11.048296,6.04343 -3.388079,-3.12525 4.740181,-5.67363 5.716771,-8 3.358326,-8 -2.366079,0 -19.677493,17.27544 -21.344638,21.30029 -1.408811,3.40117 -1.23546,4.7549 1.272231,9.9351 4.642907,9.59097 14.624598,14.13891 20.792575,9.47368 C 101.06749,325.115 104,324.74689 104,326.63245 c 0,2.16369 -7.560693,5.36758 -12.666667,5.36758 -7.232952,0 -12.209989,-3.29801 -16.643631,-11.0288 -3.995609,-6.96702 -3.998019,-6.96858 -4.010523,-2.59505 -0.02666,9.32326 5.130397,16.45454 14.23256,19.68109 5.630838,1.99603 8.774513,1.5489 13.754928,-1.95639 z"
         id="path46" />
      <path
         id="path40"
         style="fill:#ff0066"
         d="m 383.54649,498.8511 c -5.16631,-0.0694 -10.90879,1.13879 -13.93555,3.35742 -9.7636,7.15681 -10.38273,17.99656 -2.02343,35.38086 8.41991,17.51033 16.28622,24.63939 17.52929,15.88672 0.24706,-1.73956 -1.16304,-6.12307 -3.13281,-9.74219 -1.96977,-3.61911 -3.17186,-6.99024 -2.67187,-7.49023 1.09181,-1.09181 7.12963,5.68052 10.29297,11.54492 3.60987,6.69223 5.05448,5.15856 5.13671,-5.45508 l 0.0742,-9.66601 2.58985,8.16797 c 4.82887,15.2323 9.21673,14.51761 9.22461,-1.50196 0.008,-16.42488 -7.12331,-34.78417 -15.11719,-38.91797 -1.97381,-1.02069 -4.86701,-1.5228 -7.9668,-1.56445 z m 3.35938,6.64063 c 2.53465,0.0295 4.67052,0.87816 6.61328,2.55078 l 3.14844,2.71093 -8.66797,-0.81054 -8.66602,-0.8125 -5.27148,5.43554 c -5.14715,5.30737 -7.39454,6.60924 -7.39453,4.28125 0,-2.65145 6.16951,-8.68864 11.22851,-10.98632 3.54238,-1.60887 6.47512,-2.3986 9.00977,-2.36914 z" />
      <path
         id="path36"
         style="fill:#ff0066"
         d="m 452.33165,529.54251 c -0.54298,0.008 -1.09643,0.0322 -1.66406,0.0723 -9.27921,0.65521 -17.05108,4.54624 -28.58008,14.31055 -11.6403,9.85856 -12.51969,11.40096 -8.77344,15.38867 3.69602,3.93422 12.62542,6.19797 20.9043,5.30078 l 6.44922,-0.69922 -8,2.72266 c -4.4,1.49699 -9.19707,3.64004 -10.66016,4.76172 -2.28259,1.74993 -2.37852,2.21745 -0.66797,3.29883 3.04639,1.92588 15.85116,1.54005 24.61328,-0.74219 9.8376,-2.56238 19.96006,-8.00883 24.1582,-12.99805 4.16651,-4.9516 4.20999,-11.9991 0.12305,-19.74804 -4.3318,-8.21322 -9.7577,-11.78251 -17.90234,-11.66797 z m -1.94336,3.99414 c 3.63954,-0.0609 10.03138,4.25797 13.38867,9.20312 3.60274,5.3067 3.36313,13.05357 -0.53711,17.36328 -2.4037,2.65606 -4.57227,3.36004 -4.57226,1.48438 0,-0.59317 0.88035,-2.24252 1.95703,-3.66602 4.42058,-5.84453 1.81375,-12.79824 -7.29102,-19.44922 -4.58131,-3.34661 -5.44094,-4.49722 -3.63476,-4.86523 0.21645,-0.0441 0.44681,-0.0662 0.68945,-0.0703 z m -15.66992,15.79687 c 2.22452,0 -0.74852,4.49838 -6.04688,9.15039 -5.35776,4.70419 -6.00391,4.95591 -6.0039,2.33789 0,-2.05628 9.89385,-11.48828 12.05078,-11.48828 z" />
      <path
         id="path30"
         style="fill:#ff0066"
         d="m 346.86094,557.27298 c -6.41715,-0.0454 -12.45816,0.82189 -16.29882,2.78125 -6.84824,3.4937 -10.55094,9.55478 -10.55469,17.27929 -0.006,12.21188 7.64303,19.99365 19.6582,19.99805 3.11634,10e-4 11.21635,-0.95657 18,-2.12695 6.78366,-1.17039 12.78399,-2.40458 13.33399,-2.74414 1.14043,-0.70406 1.38577,-8.46094 0.26757,-8.46094 -0.40308,0 -2.35373,0.81541 -4.33398,1.8125 -4.87059,2.45241 -10.93359,3.82277 -10.93359,2.4707 0,-0.60563 4.27512,-3.16641 9.5,-5.69141 l 9.5,-4.59179 -7.83399,-0.9668 c -15.5786,-1.92554 -18.37356,-6.36523 -4.00781,-6.36523 4.88461,0 9.35038,-0.74542 10.79102,-1.79883 2.37135,-1.73399 2.35798,-1.89397 -0.33985,-4.5918 -4.31691,-4.31691 -16.05278,-6.92819 -26.74805,-7.0039 z m -12.10937,6.92773 c 1.1192,-0.0867 0.77727,2.48039 -1.30664,7.19141 -3.73374,8.44074 -3.52567,10.4093 1.55469,14.67773 2.38332,2.00244 5.11792,4.75639 6.07617,6.11914 2.71992,3.86806 -1.31906,3.22419 -6.35547,-1.01367 -8.74537,-7.35874 -9.98017,-15.76511 -3.50195,-23.8418 1.66322,-2.07362 2.86168,-3.08077 3.5332,-3.13281 z" />
      <path
         id="path20"
         style="fill:#ff0066"
         d="m 422.81407,588.06594 c -1.74528,-0.0429 -2.81445,0.71331 -2.81445,2.44727 0,1.38242 2.7,5.79426 6,9.80273 3.29999,4.00847 6,7.67658 6,8.15235 0,2.1507 -2.99712,0.3674 -9.7461,-5.80078 -7.83376,-7.15962 -9.46691,-7.99756 -8.45508,-4.33399 0.35444,1.28333 1.0316,5.33334 1.50586,9 l 0.86329,6.66602 -3.08399,-5.9336 c -4.63335,-8.91552 -7.00787,-8.84365 -6.07617,0.1836 1.46597,14.20388 13.07974,33.21456 21.26953,34.81445 4.01616,0.78457 10.20089,-0.28121 14.56445,-2.50976 14.05026,-7.17575 14.09364,-23.94075 0.10157,-39.50391 -6.78542,-7.54731 -15.66875,-12.87479 -20.12891,-12.98438 z m 27.07422,30.39258 c 0.86067,-0.0546 0.9896,1.99909 0.22656,6.06641 -1.39945,7.4597 -6.14221,10.63321 -16.49219,11.03711 -8.17166,0.31889 -8.49932,0.23479 -3.74218,-0.96289 7.87442,-1.9825 13.2071,-5.85123 16.74414,-12.14453 1.48185,-2.63661 2.59426,-3.95367 3.26367,-3.9961 z" />
      <path
         id="path18"
         style="fill:#ff0066"
         d="m 380.8336,595.87258 c -1.45024,0.0359 -4.9607,2.48121 -9.73437,7.5293 -9.11826,9.64241 -15.73412,22.79767 -14.57422,28.98047 0.90332,4.81508 6.07352,10.60432 11.47461,12.84961 4.42744,1.84055 12.86505,0.60768 18.13672,-2.65039 4.79462,-2.96325 8.95919,-10.83879 11.99218,-22.67774 2.14817,-8.38513 2.08656,-18.51742 -0.11523,-18.76757 -0.72639,-0.0825 -3.57655,3.97797 -6.33203,9.02343 -3.57373,6.54374 -4.808,8.02713 -4.30664,5.17383 0.38657,-2.2 1.19891,-6.79901 1.80468,-10.2207 l 1.10157,-6.22266 -7.87696,6.55469 c -11.19403,9.31576 -13.68998,9.01497 -5.73632,-0.69141 4.80787,-5.86738 5.80962,-8.9215 4.16601,-8.88086 z m -20.14453,29.68946 c 0.80935,0.001 2.51213,1.62295 5.99219,5.28125 l 5.24218,5.50976 8.03711,-0.91015 c 8.52854,-0.9649 11.04886,0.81128 4.61914,3.25586 -4.70684,1.78953 -11.11366,1.54456 -16.07617,-0.61524 -4.62191,-2.01158 -8.5039,-6.75074 -8.5039,-10.38086 0,-1.38408 0.13568,-2.14134 0.68945,-2.14062 z" />
      <path
         id="path34"
         style="fill:#ff00ff"
         d="m 139.28282,525.80423 c -3.83897,0.0882 -7.53023,1.3407 -10.6875,3.82421 -4.31781,3.39639 -11.1866,17.64223 -15.38086,31.89844 -3.18269,10.81793 -2.85056,14.47266 1.31445,14.47266 3.69537,0 7.50605,-5.42147 10.82813,-15.4043 3.65499,-10.98328 5.67508,-11.15351 3.10937,-0.26172 -4.22331,17.92866 -4.55518,17.29714 4.56641,8.66602 4.45627,-4.21666 8.45851,-7.66602 8.89453,-7.66602 1.53796,0 -4.37857,10.0418 -7.79687,13.23242 -3.70032,3.45384 -4.64485,8.10157 -1.64649,8.10157 0.99916,0 3.91084,-1.66489 6.4707,-3.69922 6.51659,-5.17873 18.14852,-18.68385 21.17383,-24.58203 3.99306,-7.78491 3.35238,-13.47859 -2.21289,-19.63868 -5.42596,-6.00589 -12.23452,-9.09043 -18.63281,-8.94335 z m 0.83984,3.30664 c 3.2467,0.0198 6.83102,0.91098 9.04688,2.5625 5.93782,4.42554 8.72973,10.45033 7.13672,15.40625 l -1.36719,4.2539 -0.13672,-3.73242 c -0.3509,-9.62321 -7.56895,-15.27297 -17.39258,-13.61328 -5.62415,0.9502 -6.98669,-0.35193 -3.44531,-3.29102 1.31289,-1.08959 3.63299,-1.6013 6.1582,-1.58593 z" />
      <path
         id="path28"
         style="fill:#ff00ff"
         d="m 65.220319,542.66751 c -9.712795,0 -18.546396,9.70251 -18.550781,20.375 -0.0049,11.94489 6.887787,19.28757 28.265625,30.10351 14.080936,7.12414 16.800123,7.28873 15.203125,0.92578 -0.518608,-2.0663 -3.649301,-5.45195 -7.783203,-8.42187 -8.071998,-5.79916 -6.08387,-7.42376 3.757813,-3.07031 12.23814,5.4135 12.925915,3.07439 2.351562,-8.01172 -9.102013,-9.54251 -6.391734,-11.05795 3.398438,-1.90039 10.940942,10.23397 16.480942,6.73884 7.65039,-4.82618 -9.259416,-12.12668 -27.033357,-25.17382 -34.292969,-25.17382 z m 4.746094,6.91015 c 0.351707,-0.002 0.683947,0.0126 0.988281,0.0449 l 4.378907,0.46485 -5.419922,1.60937 c -6.503897,1.92894 -10.847729,6.24651 -13.25586,13.17774 -1.379952,3.97185 -1.98383,4.60434 -2.685546,2.81445 -0.498131,-1.27061 -0.09571,-4.87061 0.894531,-8 1.402178,-4.43122 2.89563,-6.22372 6.753906,-8.10937 2.410028,-1.17786 5.883754,-1.99066 8.345703,-2.00196 z" />
      <path
         id="path22"
         style="fill:#ff00ff"
         d="m 157.91173,593.35305 c -8.7518,0.0112 -16.68925,0.51564 -17.64063,1.11914 -2.83491,1.79832 1.11591,4.08905 8.5293,4.94532 10.46654,1.20892 12.7156,1.87478 11.73047,3.46875 -0.61331,0.99236 -4.21025,1.19408 -11.01172,0.61914 l -10.10156,-0.85352 7.60546,5.58203 c 4.18272,3.07054 7.34543,5.84208 7.0293,6.15821 -0.31613,0.31613 -3.41439,-0.3937 -6.88476,-1.57618 -8.72918,-2.97432 -12.5,-2.81952 -12.5,0.50977 0,6.89593 32.55161,22.57798 42.66601,20.55469 1.83334,-0.36674 4.83269,-1.72978 6.66602,-3.02735 4.41012,-3.12131 8.57282,-11.6785 8.59179,-17.66406 0.0199,-6.28195 -5.37803,-13.37435 -12.97656,-17.05273 -4.90269,-2.37336 -8.2306,-2.8005 -21.70312,-2.78321 z m 21.85937,5.98047 2.77344,4 c 4.93967,7.12818 2.87415,18.98685 -4.16602,23.91797 -2.73858,1.91818 -9.04492,2.92315 -9.04492,1.44141 0,-0.35176 2.32297,-1.82307 5.16211,-3.27149 6.09877,-3.11136 6.74899,-4.98327 5.91016,-17.0039 z" />
      <path
         id="path15"
         style="fill:#ff00ff"
         d="m 82.667585,604.03274 c -7.740786,-0.01 -18.086019,4.81486 -26.029297,12.13672 -12.447291,11.47351 -13.180126,20.74132 -2.423828,30.65234 8.317697,7.66406 13.169732,8.27168 21.857422,2.73438 10.470071,-6.67335 29.944808,-29.55664 25.154298,-29.55664 -0.82997,0 -3.780872,1.8 -6.558595,4 -8.361786,6.62265 -9.322628,4.18223 -1.912109,-4.86133 2.61576,-3.19219 4.404945,-5.80469 3.974609,-5.80469 -0.430336,0 -3.199887,1.52559 -6.154297,3.39063 -11.792899,7.44453 -16.535405,6.76543 -5.93164,-0.84961 10.174674,-7.3069 9.420228,-11.82776 -1.976563,-11.8418 z m -28.355469,22.76563 c 0.768479,0.0198 2.163806,1.82391 3.72461,5.28515 2.776518,6.15723 8.930683,11.91602 12.732422,11.91602 1.4104,0 2.564453,0.60065 2.564453,1.33398 0,1.36455 -3.90838,1.53405 -8.666016,0.375 -5.568102,-1.35649 -8.620322,-5.59062 -10.603516,-14.70898 -0.619289,-2.84737 -0.430022,-4.21867 0.248047,-4.20117 z" />
      <path
         id="path11"
         style="fill:#ff00ff"
         d="m 127.44688,620.07376 c -2.93401,-0.002 -3.37084,2.47346 -1.47265,7.85351 2.2543,6.38938 2.68824,12.63964 0.79687,11.47071 -1.03552,-0.63998 -3.19777,-5.84143 -6.40234,-15.39844 -0.36885,-1.1 -1.7385,1.68838 -3.04297,6.19531 -3.84001,13.26722 -5.62782,14.81067 -4.79492,4.13867 0.38632,-4.94999 0.3901,-9 0.01,-9 -2.07994,0 -6.05403,13.24513 -6.77344,22.57422 -0.89388,11.59177 1.57146,21.45803 6.00782,24.04688 3.28213,1.9153 15.65865,1.65193 20.66406,-0.43946 6.59767,-2.75668 11.56055,-9.40152 11.56055,-15.47656 0,-10.85709 -10.14491,-34.85562 -15.14063,-35.81445 -0.5215,-0.1001 -0.99296,-0.15013 -1.41211,-0.15039 z m 12.91406,34.02929 -2.20312,4.25977 c -4.18628,8.09537 -16.00846,10.82378 -24.49023,5.65234 -2.38334,-1.45315 -4.33399,-3.55133 -4.33399,-4.66211 0,-2.95188 2.40452,-2.47808 6.98828,1.37891 3.19846,2.69133 4.90603,3.22091 8.19336,2.53711 3.9498,-0.82161 5.22453,-1.51448 12.66406,-6.875 z" />
    </g>
    <g
       id="layer4"
       inkscape:label="03"
       style="display:inline">
      <path
         style="fill:#ff0000"
         d="m 263.94559,112.50785 c 9.98132,-8.39873 10.82948,-20.053694 2.09411,-28.776402 -8.19207,-8.180195 -19.03062,-8.073857 -27.37303,0.268559 -9.6949,9.694893 -8.18494,20.550643 3.9277,28.237963 7.9115,5.02106 15.58943,5.11811 21.35122,0.26988 z"
         id="path81"
         transform="translate(-33.355085,-14.267116)" />
      <path
         style="fill:#ff0000"
         d="m 124.01356,286.33336 c 7.29609,-4.96568 9.84235,-9.45215 9.7264,-17.1378 -0.11586,-7.68048 -2.63835,-12.02333 -9.86256,-16.97994 -8.85051,-6.07244 -21.99796,-1.1088 -27.113978,10.2365 -3.349485,7.42783 -1.989909,11.49858 6.640068,19.88124 8.31836,8.07996 13.21813,9.03091 20.61007,4 z"
         id="path58"
         transform="translate(-33.355085,-14.267116)" />
      <path
         style="fill:#ff0000"
         d="M 402.66667,269.507 C 408.01336,265.62716 412,258.74672 412,253.39885 c 0,-6.95784 -6.40546,-15.23598 -14.04762,-18.15455 -5.61268,-2.1435 -6.29383,-2.14283 -11.93553,0.0117 C 377.38996,238.55069 374,243.90211 374,254.22593 c 0,6.92256 0.52815,8.79803 3.33333,11.83667 6.89925,7.47344 17.7483,8.94851 25.33334,3.4444 z"
         id="path60"
         transform="translate(-33.355085,-14.267116)" />
      <path
         style="fill:#ff0000"
         d="m 126,614.93925 c 10.61765,-7.37238 10.90871,-20.86085 0.65012,-30.12887 -4.57316,-4.13157 -6.2368,-4.81033 -11.79012,-4.81033 -9.53472,0 -18.752179,7.08063 -20.868393,16.0306 -1.024578,4.33318 4.793982,13.21549 12.815053,19.56279 6.83367,5.40768 10.65044,5.27759 19.19334,-0.65419 z"
         id="path24"
         transform="translate(-33.355085,-14.267116)" />
      <path
         style="fill:#ff0000"
         d="m 406.15809,593.83566 c 13.89338,-6.59284 14.27365,-25.939 0.66025,-33.59016 -8.83522,-4.96568 -16.04479,-3.27498 -23.82606,5.58739 -5.62612,6.40781 -6.45712,11.31151 -3.17448,18.73248 4.59677,10.39174 15.72418,14.30797 26.34029,9.27029 z"
         id="path32"
         transform="translate(-33.355085,-14.267116)" />
    </g>
  </g>
</svg>
